<?xml version="1.0" encoding="UTF-8"?>
<!DOCTYPE svg PUBLIC "-//W3C//DTD SVG 1.1//EN" "http://www.w3.org/Graphics/SVG/1.1/DTD/svg11.dtd">
<svg xmlns="http://www.w3.org/2000/svg" version="1.1" width="549px" height="455px" style="shape-rendering:geometricPrecision; text-rendering:geometricPrecision; image-rendering:optimizeQuality; fill-rule:evenodd; clip-rule:evenodd" xmlns:xlink="http://www.w3.org/1999/xlink">
<g><path style="opacity:0.004" fill="#fefffe" d="M 8.5,1.5 C 9.83333,2.16667 9.83333,2.16667 8.5,1.5 Z"/></g>
<g><path style="opacity:0.004" fill="#fefffe" d="M 539.5,12.5 C 540.833,13.1667 540.833,13.1667 539.5,12.5 Z"/></g>
<g><path style="opacity:0.004" fill="#fefffe" d="M 500.5,28.5 C 501.833,29.1667 501.833,29.1667 500.5,28.5 Z"/></g>
<g><path style="opacity:0.004" fill="#fefffe" d="M 446.5,32.5 C 447.833,33.1667 447.833,33.1667 446.5,32.5 Z"/></g>
<g><path style="opacity:0.997" fill="#eaeef8" d="M 330.5,82.5 C 329.957,82.56 329.624,82.8933 329.5,83.5C 330.993,84.1411 331.993,85.1411 332.5,86.5C 333.499,89.8291 334.499,93.1624 335.5,96.5C 336.625,97.9999 337.959,99.3332 339.5,100.5C 338.504,100.586 337.671,100.252 337,99.5C 336.262,103.402 336.928,107.068 339,110.5C 339.499,114.821 339.666,119.154 339.5,123.5C 319.5,123.5 299.5,123.5 279.5,123.5C 278.168,112.847 278.168,102.18 279.5,91.5C 279.523,89.9334 279.023,88.6001 278,87.5C 277.5,99.4954 277.333,111.495 277.5,123.5C 267.5,123.5 257.5,123.5 247.5,123.5C 247.167,75.5 246.833,75.5 246.5,123.5C 236.5,123.5 226.5,123.5 216.5,123.5C 216.924,109.123 216.59,99.4562 215.5,94.5C 205.5,94.5 195.5,94.5 185.5,94.5C 185.297,85.3646 184.63,85.3646 183.5,94.5C 173.81,94.8318 164.144,94.4984 154.5,93.5C 155.124,91.246 156.457,89.5794 158.5,88.5C 159.246,87.2638 159.579,85.9305 159.5,84.5C 181.956,60.2676 209.622,45.4343 242.5,40C 259.365,36.8044 276.365,35.8044 293.5,37C 307.42,41.2521 317.254,50.0854 323,63.5C 325.513,69.8552 328.013,76.1885 330.5,82.5 Z M 283.5,75.5 C 265.5,76.8333 247.5,76.8333 229.5,75.5C 231.584,73.1697 234.251,72.003 237.5,72C 240.167,69.3333 242.833,66.6667 245.5,64C 257.049,57.6105 264.382,60.7772 267.5,73.5C 272.963,73.6888 278.296,74.3555 283.5,75.5 Z"/></g>
<g><path style="opacity:0.004" fill="#fefffe" d="M 488.5,39.5 C 489.833,40.1667 489.833,40.1667 488.5,39.5 Z"/></g>
<g><path style="opacity:0.004" fill="#fefffe" d="M 29.5,43.5 C 30.8333,44.1667 30.8333,44.1667 29.5,43.5 Z"/></g>
<g><path style="opacity:0.004" fill="#fefffe" d="M 110.5,43.5 C 111.833,44.1667 111.833,44.1667 110.5,43.5 Z"/></g>
<g><path style="opacity:0.004" fill="#fefffe" d="M 470.5,43.5 C 471.833,44.1667 471.833,44.1667 470.5,43.5 Z"/></g>
<g><path style="opacity:0.004" fill="#fefffe" d="M 341.5,45.5 C 342.833,46.1667 342.833,46.1667 341.5,45.5 Z"/></g>
<g><path style="opacity:0.004" fill="#fefffe" d="M 137.5,47.5 C 138.833,48.1667 138.833,48.1667 137.5,47.5 Z"/></g>
<g><path style="opacity:0.004" fill="#fefffe" d="M 362.5,50.5 C 363.833,51.1667 363.833,51.1667 362.5,50.5 Z"/></g>
<g><path style="opacity:0.004" fill="#fefffe" d="M 29.5,51.5 C 30.8333,52.1667 30.8333,52.1667 29.5,51.5 Z"/></g>
<g><path style="opacity:0.004" fill="#fefffe" d="M 347.5,58.5 C 348.833,59.1667 348.833,59.1667 347.5,58.5 Z"/></g>
<g><path style="opacity:0.004" fill="#fefffe" d="M 68.5,59.5 C 69.8333,60.1667 69.8333,60.1667 68.5,59.5 Z"/></g>
<g><path style="opacity:0.004" fill="#fefffe" d="M 35.5,60.5 C 36.8333,61.1667 36.8333,61.1667 35.5,60.5 Z"/></g>
<g><path style="opacity:0.553" fill="#e0ecf3" d="M 378.5,70.5 C 378.33,69.1779 378.663,68.0113 379.5,67C 377.203,66.9822 374.869,67.1489 372.5,67.5C 375.275,65.5695 378.275,64.9028 381.5,65.5C 381.043,67.5976 380.043,69.2642 378.5,70.5 Z"/></g>
<g><path style="opacity:1" fill="#89b2d7" d="M 365.5,83.5 C 363.46,85.8665 362.46,85.1999 362.5,81.5C 361.841,78.5448 361.508,75.5448 361.5,72.5C 364.963,71.9009 368.296,70.9009 371.5,69.5C 372.847,68.9717 374.181,68.805 375.5,69C 372.035,71.4626 368.869,74.2959 366,77.5C 365.505,79.4727 365.338,81.4727 365.5,83.5 Z"/></g>
<g><path style="opacity:0.029" fill="#fefffe" d="M 229.5,75.5 C 247.5,76.8333 265.5,76.8333 283.5,75.5C 284.376,75.3691 285.043,75.7025 285.5,76.5C 266.5,77.8333 247.5,77.8333 228.5,76.5C 228.624,75.8933 228.957,75.56 229.5,75.5 Z"/></g>
<g><path style="opacity:0.882" fill="#c7dcea" d="M 372.5,67.5 C 372.167,68.1667 371.833,68.8333 371.5,69.5C 368.296,70.9009 364.963,71.9009 361.5,72.5C 361.508,75.5448 361.841,78.5448 362.5,81.5C 362.167,81.5 361.833,81.5 361.5,81.5C 361.249,79.8297 360.582,78.3297 359.5,77C 357.616,76.7837 355.949,76.117 354.5,75C 360.161,71.831 366.161,69.331 372.5,67.5 Z"/></g>
<g><path style="opacity:0.961" fill="#c9e0ee" d="M 378.5,70.5 C 377.226,73.7598 375.56,76.7598 373.5,79.5C 373.624,75.6172 375.291,72.6172 378.5,70.5 Z"/></g>
<g><path style="opacity:1" fill="#a9cceb" d="M 378.5,70.5 C 375.291,72.6172 373.624,75.6172 373.5,79.5C 373.719,80.675 373.386,81.675 372.5,82.5C 370.109,82.9985 367.776,83.3318 365.5,83.5C 365.338,81.4727 365.505,79.4727 366,77.5C 368.869,74.2959 372.035,71.4626 375.5,69C 374.181,68.805 372.847,68.9717 371.5,69.5C 371.833,68.8333 372.167,68.1667 372.5,67.5C 374.869,67.1489 377.203,66.9822 379.5,67C 378.663,68.0113 378.33,69.1779 378.5,70.5 Z"/></g>
<g><path style="opacity:0.278" fill="#f5c2a8" d="M 433.5,85.5 C 433.423,84.2502 432.756,83.4169 431.5,83C 425.984,82.8267 420.651,82.3267 415.5,81.5C 422.348,79.9465 429.014,80.4465 435.5,83C 436.609,84.813 435.942,85.6463 433.5,85.5 Z"/></g>
<g><path style="opacity:0.686" fill="#d2e6ee" d="M 134.5,76.5 C 133.087,77.9348 131.42,78.9348 129.5,79.5C 125.965,80.0516 122.632,81.2182 119.5,83C 118.316,84.1455 118.316,85.3121 119.5,86.5C 116.412,86.8034 114.746,85.4701 114.5,82.5C 121.111,80.2962 127.778,78.2962 134.5,76.5 Z"/></g>
<g><path style="opacity:0.588" fill="#eff4f4" d="M 361.5,81.5 C 356.762,87.4164 351.762,93.2497 346.5,99C 344.323,100.202 341.989,100.702 339.5,100.5C 337.959,99.3332 336.625,97.9999 335.5,96.5C 336.117,96.6107 336.617,96.944 337,97.5C 341.297,93.7359 341.464,89.9026 337.5,86C 335.735,85.3603 334.068,85.5269 332.5,86.5C 331.993,85.1411 330.993,84.1411 329.5,83.5C 329.624,82.8933 329.957,82.56 330.5,82.5C 337.348,80.7845 342.181,83.1179 345,89.5C 345.195,91.2072 345.195,92.8739 345,94.5C 348.806,90.6937 352.64,86.8604 356.5,83C 358.025,81.9914 359.692,81.4914 361.5,81.5 Z"/></g>
<g><path style="opacity:1" fill="#f47941" d="M 427.5,86.5 C 425.205,87.4746 423.205,88.8079 421.5,90.5C 419.08,90.2924 416.747,90.6258 414.5,91.5C 413.526,89.2573 413.192,86.924 413.5,84.5C 418.181,84.3314 422.848,83.9981 427.5,83.5C 427.5,84.5 427.5,85.5 427.5,86.5 Z"/></g>
<g><path style="opacity:1" fill="#88b3da" d="M 129.5,79.5 C 130.873,79.3433 132.207,79.51 133.5,80C 130.667,82.1667 127.833,84.3333 125,86.5C 125.019,88.1075 125.185,89.7741 125.5,91.5C 125.5,91.8333 125.5,92.1667 125.5,92.5C 123.395,95.4017 122.062,95.0684 121.5,91.5C 121.771,89.6203 121.104,88.287 119.5,87.5C 119.5,87.1667 119.5,86.8333 119.5,86.5C 118.316,85.3121 118.316,84.1455 119.5,83C 122.632,81.2182 125.965,80.0516 129.5,79.5 Z"/></g>
<g><path style="opacity:1" fill="#e97d4e" d="M 413.5,81.5 C 414.167,81.5 414.833,81.5 415.5,81.5C 420.651,82.3267 425.984,82.8267 431.5,83C 432.756,83.4169 433.423,84.2502 433.5,85.5C 433.167,85.5 432.833,85.5 432.5,85.5C 430.708,85.366 429.042,85.6993 427.5,86.5C 427.5,85.5 427.5,84.5 427.5,83.5C 422.848,83.9981 418.181,84.3314 413.5,84.5C 413.192,86.924 413.526,89.2573 414.5,91.5C 416.747,90.6258 419.08,90.2924 421.5,90.5C 421.5,91.1667 421.167,91.5 420.5,91.5C 417.873,92.0916 415.206,92.4249 412.5,92.5C 412.185,88.6286 412.518,84.9619 413.5,81.5 Z"/></g>
<g><path style="opacity:1" fill="#a5cae7" d="M 134.5,76.5 C 135.552,76.3505 136.552,76.5172 137.5,77C 135.955,82.0903 133.622,86.757 130.5,91C 128.866,91.4935 127.199,91.6602 125.5,91.5C 125.185,89.7741 125.019,88.1075 125,86.5C 127.833,84.3333 130.667,82.1667 133.5,80C 132.207,79.51 130.873,79.3433 129.5,79.5C 131.42,78.9348 133.087,77.9348 134.5,76.5 Z"/></g>
<g><path style="opacity:0.894" fill="#d3e4f0" d="M 125.5,92.5 C 125.5,92.1667 125.5,91.8333 125.5,91.5C 127.199,91.6602 128.866,91.4935 130.5,91C 133.622,86.757 135.955,82.0903 137.5,77C 136.552,76.5172 135.552,76.3505 134.5,76.5C 135.78,75.0687 137.447,74.4021 139.5,74.5C 137.997,80.5071 135.663,86.1738 132.5,91.5C 130.257,92.4742 127.924,92.8076 125.5,92.5 Z"/></g>
<g><path style="opacity:0.004" fill="#fefffe" d="M 392.5,88.5 C 393.833,89.1667 393.833,89.1667 392.5,88.5 Z"/></g>
<g><path style="opacity:0.431" fill="#f5c6ae" d="M 432.5,85.5 C 428.512,87.8138 424.512,90.1471 420.5,92.5C 420.5,92.1667 420.5,91.8333 420.5,91.5C 421.167,91.5 421.5,91.1667 421.5,90.5C 423.205,88.8079 425.205,87.4746 427.5,86.5C 429.042,85.6993 430.708,85.366 432.5,85.5 Z"/></g>
<g><path style="opacity:0.784" fill="#d68c6d" d="M 413.5,81.5 C 412.518,84.9619 412.185,88.6286 412.5,92.5C 415.206,92.4249 417.873,92.0916 420.5,91.5C 420.5,91.8333 420.5,92.1667 420.5,92.5C 420.158,93.3382 419.492,93.6716 418.5,93.5C 416.167,93.5 413.833,93.5 411.5,93.5C 411.174,89.1161 411.508,84.7828 412.5,80.5C 413.107,80.6236 413.44,80.9569 413.5,81.5 Z"/></g>
<g><path style="opacity:0.004" fill="#fefffe" d="M 107.5,94.5 C 108.833,95.1667 108.833,95.1667 107.5,94.5 Z"/></g>
<g><path style="opacity:0.478" fill="#96a3b7" d="M 415.5,81.5 C 414.833,81.5 414.167,81.5 413.5,81.5C 413.44,80.9569 413.107,80.6236 412.5,80.5C 411.508,84.7828 411.174,89.1161 411.5,93.5C 410.167,102.833 410.167,112.167 411.5,121.5C 411.631,122.376 411.298,123.043 410.5,123.5C 409.506,118.544 409.173,113.544 409.5,108.5C 409.168,97.8126 409.501,87.1459 410.5,76.5C 412.006,78.4014 413.673,80.0681 415.5,81.5 Z"/></g>
<g><path style="opacity:0.004" fill="#fefffe" d="M 116.5,98.5 C 117.833,99.1667 117.833,99.1667 116.5,98.5 Z"/></g>
<g><path style="opacity:0.004" fill="#fefffe" d="M 386.5,100.5 C 387.833,101.167 387.833,101.167 386.5,100.5 Z"/></g>
<g><path style="opacity:0.447" fill="#afc1d5" d="M 411.5,93.5 C 413.833,93.5 416.167,93.5 418.5,93.5C 416.393,94.4682 414.059,94.8016 411.5,94.5C 411.5,101.5 411.5,108.5 411.5,115.5C 411.5,117.5 411.5,119.5 411.5,121.5C 410.167,112.167 410.167,102.833 411.5,93.5 Z"/></g>
<g><path style="opacity:0.015" fill="#eef2f3" d="M 119.5,87.5 C 121.104,88.287 121.771,89.6203 121.5,91.5C 115.426,93.908 111.426,98.2413 109.5,104.5C 110.885,106.705 112.885,108.205 115.5,109C 122.234,109.475 128.734,110.975 135,113.5C 136.973,111.363 139.139,109.363 141.5,107.5C 140.519,109.489 139.519,111.489 138.5,113.5C 139.994,116.321 139.328,117.321 136.5,116.5C 135.712,117.77 134.712,118.77 133.5,119.5C 133.141,117.629 132.141,116.129 130.5,115C 125.095,113.071 119.762,112.071 114.5,112C 107.095,110.023 104.928,105.523 108,98.5C 111.42,94.2425 115.253,90.5759 119.5,87.5 Z"/></g>
<g><path style="opacity:0.004" fill="#fefffe" d="M 425.5,118.5 C 426.833,119.167 426.833,119.167 425.5,118.5 Z"/></g>
<g><path style="opacity:1" fill="#eaedf8" d="M 129.5,127.5 C 130.304,124.558 131.638,121.891 133.5,119.5C 134.712,118.77 135.712,117.77 136.5,116.5C 139.328,117.321 139.994,116.321 138.5,113.5C 139.519,111.489 140.519,109.489 141.5,107.5C 141.738,105.596 142.738,104.262 144.5,103.5C 147.508,101.815 149.841,99.4818 151.5,96.5C 152.498,105.475 152.832,114.475 152.5,123.5C 136.5,123.833 136.5,124.167 152.5,124.5C 152.5,133.5 152.5,142.5 152.5,151.5C 142.81,151.832 133.144,151.498 123.5,150.5C 122.456,148.232 122.289,145.899 123,143.5C 124.094,139.065 126.094,135.065 129,131.5C 129.49,130.207 129.657,128.873 129.5,127.5 Z"/></g>
<g><path style="opacity:1" fill="#eaeef8" d="M 246.5,147.5 C 245.29,147.932 244.29,148.599 243.5,149.5C 234.654,151.32 225.654,151.987 216.5,151.5C 216.5,142.5 216.5,133.5 216.5,124.5C 226.5,124.5 236.5,124.5 246.5,124.5C 246.5,132.167 246.5,139.833 246.5,147.5 Z"/></g>
<g><path style="opacity:1" fill="#eaedf8" d="M 277.5,124.5 C 277.5,133.5 277.5,142.5 277.5,151.5C 269.699,152.628 269.699,153.294 277.5,153.5C 277.232,156.119 277.565,158.619 278.5,161C 276.323,162.202 273.989,162.702 271.5,162.5C 271.98,159.315 271.314,156.481 269.5,154C 269.833,153.667 270.167,153.333 270.5,153C 267.442,151.782 264.776,149.949 262.5,147.5C 261.817,147.863 261.15,148.196 260.5,148.5C 260.167,148.5 259.833,148.5 259.5,148.5C 256.059,147.006 252.392,145.673 248.5,144.5C 247.503,137.866 247.17,131.2 247.5,124.5C 257.5,124.5 267.5,124.5 277.5,124.5 Z"/></g>
<g><path style="opacity:0.486" fill="#ead1c8" d="M 409.5,108.5 C 409.173,113.544 409.506,118.544 410.5,123.5C 411.298,123.043 411.631,122.376 411.5,121.5C 411.5,119.5 411.5,117.5 411.5,115.5C 412.473,117.948 412.806,120.615 412.5,123.5C 411.9,124.9 410.9,125.9 409.5,126.5C 408.833,126.833 408.167,127.167 407.5,127.5C 406.494,127.062 406.494,126.396 407.5,125.5C 408.08,119.699 408.747,114.032 409.5,108.5 Z"/></g>
<g><path style="opacity:0.553" fill="#a2bdd0" d="M 412.5,123.5 C 413.097,123.735 413.43,124.235 413.5,125C 411.815,128.638 411.149,132.471 411.5,136.5C 411.843,138.483 411.176,139.817 409.5,140.5C 409.5,135.833 409.5,131.167 409.5,126.5C 410.9,125.9 411.9,124.9 412.5,123.5 Z"/></g>
<g><path style="opacity:0.004" fill="#fefffe" d="M 524.5,131.5 C 525.833,132.167 525.833,132.167 524.5,131.5 Z"/></g>
<g><path style="opacity:0.957" fill="#b5d0e6" d="M 459.5,133.5 C 460.398,134.158 461.398,134.824 462.5,135.5C 461.903,138.971 461.236,142.305 460.5,145.5C 460.5,142.5 460.5,139.5 460.5,136.5C 455.833,135.833 451.167,135.167 446.5,134.5C 445.761,134.369 445.094,134.536 444.5,135C 447.563,137.03 449.229,139.864 449.5,143.5C 445.854,140.521 442.521,137.188 439.5,133.5C 446.163,132.388 452.83,132.388 459.5,133.5 Z"/></g>
<g><path style="opacity:1" fill="#a3cbed" d="M 446.5,134.5 C 448.965,136.837 451.965,138.337 455.5,139C 457.155,140.444 457.822,142.278 457.5,144.5C 454.763,144.599 452.096,144.265 449.5,143.5C 449.229,139.864 447.563,137.03 444.5,135C 445.094,134.536 445.761,134.369 446.5,134.5 Z"/></g>
<g><path style="opacity:1" fill="#7aa9d4" d="M 446.5,134.5 C 451.167,135.167 455.833,135.833 460.5,136.5C 460.5,139.5 460.5,142.5 460.5,145.5C 459.833,145.5 459.167,145.5 458.5,145.5C 458.5,144.833 458.167,144.5 457.5,144.5C 457.822,142.278 457.155,140.444 455.5,139C 451.965,138.337 448.965,136.837 446.5,134.5 Z"/></g>
<g><path style="opacity:0.231" fill="#dde9f2" d="M 458.5,145.5 C 459.167,145.5 459.833,145.5 460.5,145.5C 461.236,142.305 461.903,138.971 462.5,135.5C 461.398,134.824 460.398,134.158 459.5,133.5C 461.262,133.643 462.929,133.309 464.5,132.5C 468.36,134.526 468.026,136.192 463.5,137.5C 462.679,140.447 462.179,143.447 462,146.5C 460.421,147.8 459.255,147.466 458.5,145.5 Z"/></g>
<g><path style="opacity:0.606" fill="#dbc3b1" d="M 407.5,125.5 C 406.494,126.396 406.494,127.062 407.5,127.5C 407.5,127.833 407.5,128.167 407.5,128.5C 404.479,131.521 401.479,134.521 398.5,137.5C 395.911,138.419 393.911,140.086 392.5,142.5C 392.5,142.833 392.5,143.167 392.5,143.5C 391.596,144.209 391.263,145.209 391.5,146.5C 389.96,148.838 389.294,151.505 389.5,154.5C 389.443,155.609 389.11,156.609 388.5,157.5C 388.167,157.5 387.833,157.5 387.5,157.5C 386.833,158.167 386.167,158.833 385.5,159.5C 385.232,157.901 385.566,156.568 386.5,155.5C 388.281,151.8 389.281,147.8 389.5,143.5C 394.2,136.16 400.2,130.16 407.5,125.5 Z"/></g>
<g><path style="opacity:1" fill="#f1f2f4" d="M 409.5,126.5 C 409.5,131.167 409.5,135.833 409.5,140.5C 406.759,141.083 404.092,142.083 401.5,143.5C 400.396,142.369 400.729,141.535 402.5,141C 401.57,140.009 400.404,139.509 399,139.5C 396.718,140.29 394.552,141.29 392.5,142.5C 393.911,140.086 395.911,138.419 398.5,137.5C 401.613,137.849 404.946,137.849 408.5,137.5C 408.81,134.287 408.477,131.287 407.5,128.5C 407.5,128.167 407.5,127.833 407.5,127.5C 408.167,127.167 408.833,126.833 409.5,126.5 Z"/></g>
<g><path style="opacity:1" fill="#e9eefa" d="M 411.5,136.5 C 416.77,137.769 422.103,138.936 427.5,140C 428.823,140.816 429.489,141.983 429.5,143.5C 418.643,145.72 407.643,146.053 396.5,144.5C 395.041,144.567 393.708,144.234 392.5,143.5C 392.5,143.167 392.5,142.833 392.5,142.5C 394.552,141.29 396.718,140.29 399,139.5C 400.404,139.509 401.57,140.009 402.5,141C 400.729,141.535 400.396,142.369 401.5,143.5C 404.092,142.083 406.759,141.083 409.5,140.5C 411.176,139.817 411.843,138.483 411.5,136.5 Z"/></g>
<g><path style="opacity:0.651" fill="#cadce9" d="M 449.5,143.5 C 452.096,144.265 454.763,144.599 457.5,144.5C 458.167,144.5 458.5,144.833 458.5,145.5C 454.708,148.572 451.708,147.905 449.5,143.5 Z"/></g>
<g><path style="opacity:0.004" fill="#fefffe" d="M 485.5,146.5 C 486.833,147.167 486.833,147.167 485.5,146.5 Z"/></g>
<g><path style="opacity:1" fill="#fdfefe" d="M 246.5,147.5 C 250.881,147.372 255.215,147.705 259.5,148.5C 259.833,148.5 260.167,148.5 260.5,148.5C 262.371,149.854 264.037,151.521 265.5,153.5C 267.444,158.172 269.277,162.839 271,167.5C 275.427,162.503 279.927,162.336 284.5,167C 290.826,167.056 296.993,167.889 303,169.5C 304.309,171.686 304.476,173.853 303.5,176C 294.787,176.224 286.12,176.724 277.5,177.5C 261.675,176.504 245.675,176.17 229.5,176.5C 229.5,175.5 229.5,174.5 229.5,173.5C 231.036,170.908 233.369,169.908 236.5,170.5C 236.096,165.217 236.762,160.217 238.5,155.5C 239.862,153.3 241.529,151.3 243.5,149.5C 244.29,148.599 245.29,147.932 246.5,147.5 Z"/></g>
<g><path style="opacity:0.318" fill="#f7eede" d="M 389.5,143.5 C 389.281,147.8 388.281,151.8 386.5,155.5C 386.719,151.2 387.719,147.2 389.5,143.5 Z"/></g>
<g><path style="opacity:1" fill="#9cc2e6" d="M 427.5,153.5 C 427.5,181.833 427.5,210.167 427.5,238.5C 425.08,238.292 422.747,238.626 420.5,239.5C 419.571,240.689 419.238,242.022 419.5,243.5C 421.988,245.388 424.988,246.055 428.5,245.5C 428.833,295.171 428.5,344.838 427.5,394.5C 415.792,397.938 404.125,398.271 392.5,395.5C 393.5,395.5 394.5,395.5 395.5,395.5C 396.477,392.713 396.81,389.713 396.5,386.5C 397.117,386.389 397.617,386.056 398,385.5C 398.402,370.163 398.902,354.83 399.5,339.5C 398.332,329.494 398.332,319.494 399.5,309.5C 399.697,304.62 399.031,299.953 397.5,295.5C 397.477,293.933 397.977,292.6 399,291.5C 399.167,281.167 399.333,270.833 399.5,260.5C 399.638,233.476 399.304,206.476 398.5,179.5C 398.958,176.125 399.625,172.792 400.5,169.5C 399.733,166.902 398.733,164.402 397.5,162C 397.844,160.635 398.511,159.468 399.5,158.5C 404.978,157.955 410.311,157.121 415.5,156C 413.03,154.886 410.364,154.386 407.5,154.5C 404.133,154.645 400.799,154.978 397.5,155.5C 397.181,153.25 397.681,151.25 399,149.5C 407.313,150.843 415.646,152.51 424,154.5C 424.704,152.273 425.871,151.94 427.5,153.5 Z"/></g>
<g><path style="opacity:0.788" fill="#d7b3a7" d="M 387.5,157.5 C 385.961,165.193 384.295,172.86 382.5,180.5C 379.237,189.933 376.404,199.6 374,209.5C 373.833,208.5 373.667,207.5 373.5,206.5C 377.258,192.901 380.591,179.235 383.5,165.5C 384.73,163.703 385.396,161.703 385.5,159.5C 386.167,158.833 386.833,158.167 387.5,157.5 Z"/></g>
<g><path style="opacity:1" fill="#eceff8" d="M 277.5,124.5 C 278.167,124.5 278.833,124.5 279.5,124.5C 279.5,133.5 279.5,142.5 279.5,151.5C 289.167,151.5 298.833,151.5 308.5,151.5C 308.5,142.5 308.5,133.5 308.5,124.5C 309.167,124.5 309.833,124.5 310.5,124.5C 310.5,133.5 310.5,142.5 310.5,151.5C 320.167,151.5 329.833,151.5 339.5,151.5C 339.5,142.5 339.5,133.5 339.5,124.5C 341.833,124.5 344.167,124.5 346.5,124.5C 351.23,134.613 357.897,143.279 366.5,150.5C 367.508,152.339 369.008,153.672 371,154.5C 371.5,163.16 371.666,171.827 371.5,180.5C 330.167,180.5 288.833,180.5 247.5,180.5C 247.5,179.5 247.5,178.5 247.5,177.5C 257.5,177.5 267.5,177.5 277.5,177.5C 286.12,176.724 294.787,176.224 303.5,176C 304.476,173.853 304.309,171.686 303,169.5C 296.993,167.889 290.826,167.056 284.5,167C 279.927,162.336 275.427,162.503 271,167.5C 269.277,162.839 267.444,158.172 265.5,153.5C 264.037,151.521 262.371,149.854 260.5,148.5C 261.15,148.196 261.817,147.863 262.5,147.5C 264.776,149.949 267.442,151.782 270.5,153C 270.167,153.333 269.833,153.667 269.5,154C 271.314,156.481 271.98,159.315 271.5,162.5C 273.989,162.702 276.323,162.202 278.5,161C 277.565,158.619 277.232,156.119 277.5,153.5C 269.699,153.294 269.699,152.628 277.5,151.5C 277.5,142.5 277.5,133.5 277.5,124.5 Z"/></g>
<g><path style="opacity:1" fill="#eaedf8" d="M 310.5,124.5 C 320.167,124.5 329.833,124.5 339.5,124.5C 339.5,133.5 339.5,142.5 339.5,151.5C 329.833,151.5 320.167,151.5 310.5,151.5C 310.5,142.5 310.5,133.5 310.5,124.5 Z"/></g>
<g><path style="opacity:1" fill="#eaedf8" d="M 279.5,124.5 C 289.167,124.5 298.833,124.5 308.5,124.5C 308.5,133.5 308.5,142.5 308.5,151.5C 298.833,151.5 289.167,151.5 279.5,151.5C 279.5,142.5 279.5,133.5 279.5,124.5 Z"/></g>
<g><path style="opacity:1" fill="#98c2ea" d="M 396.5,146.5 C 401.092,148.747 405.925,149.08 411,147.5C 416.161,148.06 421.327,148.56 426.5,149C 427.38,150.356 427.714,151.856 427.5,153.5C 425.871,151.94 424.704,152.273 424,154.5C 415.646,152.51 407.313,150.843 399,149.5C 397.681,151.25 397.181,153.25 397.5,155.5C 400.799,154.978 404.133,154.645 407.5,154.5C 410.364,154.386 413.03,154.886 415.5,156C 410.311,157.121 404.978,157.955 399.5,158.5C 398.511,159.468 397.844,160.635 397.5,162C 398.733,164.402 399.733,166.902 400.5,169.5C 399.625,172.792 398.958,176.125 398.5,179.5C 399.304,206.476 399.638,233.476 399.5,260.5C 399.333,270.833 399.167,281.167 399,291.5C 397.977,292.6 397.477,293.933 397.5,295.5C 399.031,299.953 399.697,304.62 399.5,309.5C 398.332,319.494 398.332,329.494 399.5,339.5C 398.902,354.83 398.402,370.163 398,385.5C 397.617,386.056 397.117,386.389 396.5,386.5C 396.5,306.5 396.5,226.5 396.5,146.5 Z"/></g>
<g><path style="opacity:1" fill="#73a3d1" d="M 392.5,143.5 C 393.708,144.234 395.041,144.567 396.5,144.5C 396.5,145.167 396.5,145.833 396.5,146.5C 396.5,226.5 396.5,306.5 396.5,386.5C 396.81,389.713 396.477,392.713 395.5,395.5C 395.5,318.5 395.5,241.5 395.5,164.5C 395.829,158.794 395.495,153.128 394.5,147.5C 393.914,147.709 393.414,148.043 393,148.5C 392.827,154.016 392.327,159.349 391.5,164.5C 391.5,158.5 391.5,152.5 391.5,146.5C 391.263,145.209 391.596,144.209 392.5,143.5 Z"/></g>
<g><path style="opacity:1" fill="#e9eff7" d="M 382.5,159.5 C 383.5,160.833 384.5,160.833 385.5,159.5C 385.396,161.703 384.73,163.703 383.5,165.5C 381.887,165.944 380.72,166.944 380,168.5C 378.734,172.395 378.234,176.395 378.5,180.5C 376.5,180.5 374.5,180.5 372.5,180.5C 372.5,172.5 372.5,164.5 372.5,156.5C 375.833,157.5 379.167,158.5 382.5,159.5 Z"/></g>
<g><path style="opacity:0.004" fill="#fefffe" d="M 29.5,174.5 C 30.8333,175.167 30.8333,175.167 29.5,174.5 Z"/></g>
<g><path style="opacity:0.999" fill="#a9c7e2" d="M 429.5,143.5 C 429.5,153.833 429.5,164.167 429.5,174.5C 429.5,177.167 429.5,179.833 429.5,182.5C 429.5,200.833 429.5,219.167 429.5,237.5C 428.051,239.164 426.051,239.998 423.5,240C 422.29,241.039 421.29,242.206 420.5,243.5C 420.167,243.5 419.833,243.5 419.5,243.5C 419.238,242.022 419.571,240.689 420.5,239.5C 422.747,238.626 425.08,238.292 427.5,238.5C 427.5,210.167 427.5,181.833 427.5,153.5C 427.714,151.856 427.38,150.356 426.5,149C 421.327,148.56 416.161,148.06 411,147.5C 405.925,149.08 401.092,148.747 396.5,146.5C 396.5,145.833 396.5,145.167 396.5,144.5C 407.643,146.053 418.643,145.72 429.5,143.5 Z"/></g>
<g><path style="opacity:0.004" fill="#fefffe" d="M 86.5,177.5 C 87.8333,178.167 87.8333,178.167 86.5,177.5 Z"/></g>
<g><path style="opacity:0.086" fill="#edf2f2" d="M 463.5,141.5 C 476.135,141.291 484.135,147.124 487.5,159C 486.394,167.183 487.56,175.35 491,183.5C 492.022,184.354 492.855,185.354 493.5,186.5C 497.796,187.328 502.129,187.828 506.5,188C 501.68,191.117 496.68,191.284 491.5,188.5C 487.958,184.052 485.458,179.052 484,173.5C 478.331,178.154 472.831,178.154 467.5,173.5C 463.733,165.053 466.566,160.72 476,160.5C 479.044,160.664 481.877,161.164 484.5,162C 484.229,156.847 482.229,152.514 478.5,149C 473.247,146.64 468.247,144.14 463.5,141.5 Z M 470.5,163.5 C 473.85,163.335 477.183,163.502 480.5,164C 483.769,166.329 483.769,168.996 480.5,172C 477.167,172.667 473.833,172.667 470.5,172C 468.047,169.251 468.047,166.417 470.5,163.5 Z"/></g>
<g><path style="opacity:1" fill="#eaedf8" d="M 375.5,181.5 C 376.051,184.807 376.384,188.14 376.5,191.5C 375.5,191.5 374.5,191.5 373.5,191.5C 373.162,189.146 372.662,186.813 372,184.5C 371.546,186.536 370.713,188.37 369.5,190C 371.376,196.659 372.043,203.492 371.5,210.5C 370.127,210.343 368.793,210.51 367.5,211C 368.554,212.388 368.72,213.888 368,215.5C 361.639,212.535 360.806,213.868 365.5,219.5C 364.326,220.514 363.66,221.847 363.5,223.5C 361.326,223.75 359.659,224.75 358.5,226.5C 356.05,226.298 353.717,226.631 351.5,227.5C 352.588,224.444 352.588,221.444 351.5,218.5C 352.492,218.672 353.158,218.338 353.5,217.5C 354.404,216.791 354.737,215.791 354.5,214.5C 352.167,214.5 349.833,214.5 347.5,214.5C 345.735,213.539 343.735,213.205 341.5,213.5C 341.281,212.325 341.614,211.325 342.5,210.5C 347.975,208.101 347.641,207.101 341.5,207.5C 341.5,198.833 341.5,190.167 341.5,181.5C 352.833,181.5 364.167,181.5 375.5,181.5 Z"/></g>
<g><path style="opacity:0.004" fill="#fefffe" d="M 23.5,182.5 C 24.8333,183.167 24.8333,183.167 23.5,182.5 Z"/></g>
<g><path style="opacity:0.998" fill="#eaeef8" d="M 468.5,187.5 C 480.813,192.85 488.313,202.183 491,215.5C 493.398,239.171 489.732,261.838 480,283.5C 477.971,287.58 475.471,291.246 472.5,294.5C 470.5,294.5 468.5,294.5 466.5,294.5C 466.5,285.5 466.5,276.5 466.5,267.5C 475.833,267.167 475.833,266.833 466.5,266.5C 466.17,260.132 466.504,253.798 467.5,247.5C 470.767,246.288 474.101,245.288 477.5,244.5C 475.577,243.692 473.577,243.192 471.5,243C 471.048,241.388 469.715,240.388 467.5,240C 468.623,238.956 469.956,238.29 471.5,238C 469.866,237.506 468.199,237.34 466.5,237.5C 466.667,222.163 466.5,206.83 466,191.5C 465.501,197.491 465.334,203.491 465.5,209.5C 455.5,209.5 445.5,209.5 435.5,209.5C 435.5,200.167 435.5,190.833 435.5,181.5C 441.176,181.334 446.843,181.501 452.5,182C 455.287,183.677 458.12,185.177 461,186.5C 461.414,186.043 461.914,185.709 462.5,185.5C 464.323,186.747 466.323,187.414 468.5,187.5 Z"/></g>
<g><path style="opacity:1" fill="#fdfefe" d="M 125.5,209.5 C 126.833,209.5 128.167,209.5 129.5,209.5C 133.382,210.806 136.048,213.473 137.5,217.5C 140.167,217.833 142.833,218.167 145.5,218.5C 147.472,220.415 148.472,222.749 148.5,225.5C 150.5,225.833 152.5,226.167 154.5,226.5C 155.376,226.369 156.043,226.702 156.5,227.5C 150.537,228.496 144.537,228.829 138.5,228.5C 127.167,228.5 115.833,228.5 104.5,228.5C 103.448,228.649 102.448,228.483 101.5,228C 103.219,226.943 105.053,226.11 107,225.5C 106.719,220.016 109.219,217.016 114.5,216.5C 118.281,223.196 120.447,222.862 121,215.5C 122.717,213.623 124.217,211.623 125.5,209.5 Z"/></g>
<g><path style="opacity:1" fill="#eaeef8" d="M 138.5,228.5 C 144.537,228.829 150.537,228.496 156.5,227.5C 156.043,226.702 155.376,226.369 154.5,226.5C 154.5,221.167 154.5,215.833 154.5,210.5C 164.167,210.5 173.833,210.5 183.5,210.5C 183.196,219.221 183.529,227.888 184.5,236.5C 164.178,237.5 143.844,237.833 123.5,237.5C 123.768,234.881 123.435,232.381 122.5,230C 128.016,229.827 133.349,229.327 138.5,228.5 Z"/></g>
<g><path style="opacity:1" fill="#eaeef9" d="M 459.5,237.5 C 453.613,227.621 445.613,225.788 435.5,232C 434.26,234.744 432.26,236.577 429.5,237.5C 429.5,219.167 429.5,200.833 429.5,182.5C 431.567,181.407 432.234,181.907 431.5,184C 432.459,185.707 433.125,187.541 433.5,189.5C 432.318,193.213 431.651,197.047 431.5,201C 432.727,211.136 433.561,221.302 434,231.5C 435.425,224.615 435.925,217.615 435.5,210.5C 445.5,210.5 455.5,210.5 465.5,210.5C 465.5,219.5 465.5,228.5 465.5,237.5C 463.5,237.5 461.5,237.5 459.5,237.5 Z"/></g>
<g><path style="opacity:1" fill="#eaeef8" d="M 345.5,215.5 C 345.5,215.833 345.5,216.167 345.5,216.5C 344.258,218.389 344.258,220.389 345.5,222.5C 345.833,223.5 346.5,224.167 347.5,224.5C 347.5,225.5 347.5,226.5 347.5,227.5C 345.801,227.34 344.134,227.506 342.5,228C 341.748,228.671 341.414,229.504 341.5,230.5C 338.888,232.052 337.555,234.386 337.5,237.5C 328.5,237.5 319.5,237.5 310.5,237.5C 310.5,228.5 310.5,219.5 310.5,210.5C 318.84,210.334 327.173,210.5 335.5,211C 338.131,214.147 341.464,215.647 345.5,215.5 Z"/></g>
<g><path style="opacity:1" fill="#92a4bf" d="M 346.5,215.5 C 346.5,214.833 346.833,214.5 347.5,214.5C 349.833,214.5 352.167,214.5 354.5,214.5C 354.737,215.791 354.404,216.791 353.5,217.5C 351.721,215.656 349.388,214.99 346.5,215.5 Z"/></g>
<g><path style="opacity:1" fill="#f0edf1" d="M 383.5,165.5 C 380.591,179.235 377.258,192.901 373.5,206.5C 373.667,207.5 373.833,208.5 374,209.5C 376.404,199.6 379.237,189.933 382.5,180.5C 382.299,183.728 382.633,186.895 383.5,190C 382.576,191.811 381.743,191.645 381,189.5C 380.304,193.051 379.47,196.551 378.5,200C 379.293,203.269 380.293,206.436 381.5,209.5C 379.833,209.5 378.167,209.5 376.5,209.5C 376.923,211.781 376.256,213.448 374.5,214.5C 374.279,210.282 372.779,209.615 370,212.5C 369.89,215.768 368.39,218.101 365.5,219.5C 360.806,213.868 361.639,212.535 368,215.5C 368.72,213.888 368.554,212.388 367.5,211C 368.793,210.51 370.127,210.343 371.5,210.5C 372.043,203.492 371.376,196.659 369.5,190C 370.713,188.37 371.546,186.536 372,184.5C 372.662,186.813 373.162,189.146 373.5,191.5C 374.5,191.5 375.5,191.5 376.5,191.5C 376.384,188.14 376.051,184.807 375.5,181.5C 376.791,181.737 377.791,181.404 378.5,180.5C 378.234,176.395 378.734,172.395 380,168.5C 380.72,166.944 381.887,165.944 383.5,165.5 Z"/></g>
<g><path style="opacity:1" fill="#eec2aa" d="M 374.5,214.5 C 374.5,215.167 374.167,215.5 373.5,215.5C 373.179,213.952 372.179,213.285 370.5,213.5C 369.77,217.906 367.437,221.239 363.5,223.5C 363.66,221.847 364.326,220.514 365.5,219.5C 368.39,218.101 369.89,215.768 370,212.5C 372.779,209.615 374.279,210.282 374.5,214.5 Z"/></g>
<g><path style="opacity:1" fill="#36437b" d="M 345.5,215.5 C 345.833,215.5 346.167,215.5 346.5,215.5C 349.388,214.99 351.721,215.656 353.5,217.5C 351.801,217.34 350.134,217.506 348.5,218C 347.748,218.671 347.414,219.504 347.5,220.5C 345.824,219.817 345.157,218.483 345.5,216.5C 345.5,216.167 345.5,215.833 345.5,215.5 Z"/></g>
<g><path style="opacity:0.227" fill="#ccdeea" d="M 82.5,224.5 C 82.67,223.178 82.3366,222.011 81.5,221C 77.5092,220.358 73.5092,219.858 69.5,219.5C 67.2646,219.205 65.2646,219.539 63.5,220.5C 63.5,220.833 63.5,221.167 63.5,221.5C 61.0882,221.306 60.0882,219.973 60.5,217.5C 69.5775,217.84 78.5775,218.84 87.5,220.5C 85.8144,221.857 84.1477,223.19 82.5,224.5 Z"/></g>
<g><path style="opacity:1" fill="#71819d" d="M 345.5,216.5 C 345.157,218.483 345.824,219.817 347.5,220.5C 347.167,221.5 346.5,222.167 345.5,222.5C 344.258,220.389 344.258,218.389 345.5,216.5 Z"/></g>
<g><path style="opacity:1" fill="#e3a782" d="M 373.5,215.5 C 369.5,220.5 365.5,225.5 361.5,230.5C 360.222,230.218 359.222,229.551 358.5,228.5C 358.5,227.833 358.5,227.167 358.5,226.5C 359.659,224.75 361.326,223.75 363.5,223.5C 367.437,221.239 369.77,217.906 370.5,213.5C 372.179,213.285 373.179,213.952 373.5,215.5 Z"/></g>
<g><path style="opacity:0.992" fill="#accde7" d="M 69.5,219.5 C 73.5092,219.858 77.5092,220.358 81.5,221C 82.3366,222.011 82.67,223.178 82.5,224.5C 82.2606,226.467 82.5939,228.301 83.5,230C 81.9688,233.112 80.3021,233.279 78.5,230.5C 79.4959,230.414 80.3292,230.748 81,231.5C 81.8214,228.446 81.6548,225.446 80.5,222.5C 76.6342,221.811 72.9675,220.811 69.5,219.5 Z"/></g>
<g><path style="opacity:1" fill="#ac979a" d="M 353.5,217.5 C 353.158,218.338 352.492,218.672 351.5,218.5C 349.204,219.733 347.87,221.733 347.5,224.5C 346.5,224.167 345.833,223.5 345.5,222.5C 346.5,222.167 347.167,221.5 347.5,220.5C 347.414,219.504 347.748,218.671 348.5,218C 350.134,217.506 351.801,217.34 353.5,217.5 Z"/></g>
<g><path style="opacity:0.955" fill="#bed7eb" d="M 63.5,222.5 C 67.4268,222.306 70.2601,223.973 72,227.5C 72.4828,228.448 72.6495,229.448 72.5,230.5C 74.5648,230.483 76.5648,230.15 78.5,229.5C 78.5,229.833 78.5,230.167 78.5,230.5C 77.3734,231.122 76.3734,231.955 75.5,233C 74.5,233.667 73.5,233.667 72.5,233C 69.6645,229.333 66.6645,225.833 63.5,222.5 Z"/></g>
<g><path style="opacity:1" fill="#679dce" d="M 395.5,164.5 C 395.5,241.5 395.5,318.5 395.5,395.5C 394.5,395.5 393.5,395.5 392.5,395.5C 391.517,380.912 391.184,366.245 391.5,351.5C 391.5,292.833 391.5,234.167 391.5,175.5C 392.333,214.331 392.833,253.331 393,292.5C 393.333,250.167 393.667,207.833 394,165.5C 394.383,164.944 394.883,164.611 395.5,164.5 Z"/></g>
<g><path style="opacity:1" fill="#7eabd5" d="M 63.5,220.5 C 65.2646,219.539 67.2646,219.205 69.5,219.5C 72.9675,220.811 76.6342,221.811 80.5,222.5C 81.6548,225.446 81.8214,228.446 81,231.5C 80.3292,230.748 79.4959,230.414 78.5,230.5C 78.5,230.167 78.5,229.833 78.5,229.5C 78.762,228.022 78.4287,226.689 77.5,225.5C 72.9769,223.21 68.3102,221.543 63.5,220.5 Z"/></g>
<g><path style="opacity:1" fill="#e5b38e" d="M 351.5,218.5 C 352.588,221.444 352.588,224.444 351.5,227.5C 351.5,228.5 351.5,229.5 351.5,230.5C 349.027,230.912 347.694,229.912 347.5,227.5C 347.5,226.5 347.5,225.5 347.5,224.5C 347.87,221.733 349.204,219.733 351.5,218.5 Z"/></g>
<g><path style="opacity:1" fill="#a3caed" d="M 63.5,220.5 C 68.3102,221.543 72.9769,223.21 77.5,225.5C 78.4287,226.689 78.762,228.022 78.5,229.5C 76.5648,230.15 74.5648,230.483 72.5,230.5C 72.6495,229.448 72.4828,228.448 72,227.5C 70.2601,223.973 67.4268,222.306 63.5,222.5C 63.5,222.167 63.5,221.833 63.5,221.5C 63.5,221.167 63.5,220.833 63.5,220.5 Z"/></g>
<g><path style="opacity:1" fill="#739bc3" d="M 358.5,226.5 C 358.5,227.167 358.5,227.833 358.5,228.5C 358.573,230.027 357.906,231.027 356.5,231.5C 356.762,230.022 356.429,228.689 355.5,227.5C 353.779,229.393 351.945,231.059 350,232.5C 347.773,231.637 345.607,230.637 343.5,229.5C 342.817,229.863 342.15,230.196 341.5,230.5C 341.414,229.504 341.748,228.671 342.5,228C 344.134,227.506 345.801,227.34 347.5,227.5C 347.694,229.912 349.027,230.912 351.5,230.5C 351.5,229.5 351.5,228.5 351.5,227.5C 353.717,226.631 356.05,226.298 358.5,226.5 Z"/></g>
<g><path style="opacity:1" fill="#fdfdfe" d="M 459.5,237.5 C 459.5,238.833 459.5,240.167 459.5,241.5C 463.599,239.367 466.932,240.201 469.5,244C 466.964,244.186 464.631,244.686 462.5,245.5C 451.5,245.5 440.5,245.5 429.5,245.5C 426.5,244.833 423.5,244.167 420.5,243.5C 421.29,242.206 422.29,241.039 423.5,240C 426.051,239.998 428.051,239.164 429.5,237.5C 432.26,236.577 434.26,234.744 435.5,232C 445.613,225.788 453.613,227.621 459.5,237.5 Z"/></g>
<g><path style="opacity:1" fill="#679cd3" d="M 395.5,164.5 C 394.883,164.611 394.383,164.944 394,165.5C 393.667,207.833 393.333,250.167 393,292.5C 392.833,253.331 392.333,214.331 391.5,175.5C 391.5,171.833 391.5,168.167 391.5,164.5C 392.327,159.349 392.827,154.016 393,148.5C 393.414,148.043 393.914,147.709 394.5,147.5C 395.495,153.128 395.829,158.794 395.5,164.5 Z"/></g>
<g><path style="opacity:1" fill="#6498ce" d="M 356.5,231.5 C 355.833,231.5 355.5,231.833 355.5,232.5C 354.041,234.993 352.708,237.659 351.5,240.5C 349.371,242.656 347.038,244.323 344.5,245.5C 344.614,242.784 343.614,240.784 341.5,239.5C 340.833,239.5 340.167,239.5 339.5,239.5C 339.5,238.167 338.833,237.5 337.5,237.5C 337.555,234.386 338.888,232.052 341.5,230.5C 342.15,230.196 342.817,229.863 343.5,229.5C 345.607,230.637 347.773,231.637 350,232.5C 351.945,231.059 353.779,229.393 355.5,227.5C 356.429,228.689 356.762,230.022 356.5,231.5 Z"/></g>
<g><path style="opacity:1" fill="#cfb3b4" d="M 358.5,228.5 C 359.222,229.551 360.222,230.218 361.5,230.5C 359.804,232.525 358.137,234.525 356.5,236.5C 355.566,235.432 355.232,234.099 355.5,232.5C 355.5,231.833 355.833,231.5 356.5,231.5C 357.906,231.027 358.573,230.027 358.5,228.5 Z"/></g>
<g><path style="opacity:1" fill="#9397ab" d="M 355.5,232.5 C 355.232,234.099 355.566,235.432 356.5,236.5C 356.5,237.833 356.5,239.167 356.5,240.5C 355.325,240.281 354.325,240.614 353.5,241.5C 350.819,245.178 347.819,248.511 344.5,251.5C 344.5,250.833 344.5,250.167 344.5,249.5C 344.5,248.167 344.5,246.833 344.5,245.5C 347.038,244.323 349.371,242.656 351.5,240.5C 352.708,237.659 354.041,234.993 355.5,232.5 Z"/></g>
<g><path style="opacity:1" fill="#bed6ef" d="M 391.5,146.5 C 391.5,152.5 391.5,158.5 391.5,164.5C 391.5,168.167 391.5,171.833 391.5,175.5C 391.5,234.167 391.5,292.833 391.5,351.5C 391.167,351.5 390.833,351.5 390.5,351.5C 390.5,342.5 390.5,333.5 390.5,324.5C 390.5,324.167 390.5,323.833 390.5,323.5C 390.5,304.833 390.5,286.167 390.5,267.5C 390.5,267.167 390.5,266.833 390.5,266.5C 390.5,231.833 390.5,197.167 390.5,162.5C 390.806,159.615 390.473,156.948 389.5,154.5C 389.294,151.505 389.96,148.838 391.5,146.5 Z"/></g>
<g><path style="opacity:1" fill="#e9edf8" d="M 387.5,157.5 C 387.833,157.5 388.167,157.5 388.5,157.5C 388.077,159.781 388.744,161.448 390.5,162.5C 390.5,197.167 390.5,231.833 390.5,266.5C 384.794,266.829 379.128,266.495 373.5,265.5C 372.354,260.298 371.354,260.464 370.5,266C 371.482,285.133 371.815,304.299 371.5,323.5C 370.167,323.5 368.833,323.5 367.5,323.5C 367.826,314.651 367.493,305.984 366.5,297.5C 366.167,297.5 365.833,297.5 365.5,297.5C 365.5,296.167 365.5,294.833 365.5,293.5C 358.957,293.294 352.623,293.294 346.5,293.5C 344.565,292.85 342.565,292.517 340.5,292.5C 340.5,293.5 340.5,294.5 340.5,295.5C 339.732,294.737 339.232,293.737 339,292.5C 338.346,293.696 337.846,293.696 337.5,292.5C 338.689,291.571 340.022,291.238 341.5,291.5C 341.441,286.31 341.775,281.143 342.5,276C 342.435,273.409 341.935,270.909 341,268.5C 339.796,274.753 339.129,281.086 339,287.5C 338.29,288.973 337.124,289.64 335.5,289.5C 335.334,283.158 335.5,276.825 336,270.5C 336.317,268.699 336.984,268.366 338,269.5C 339.487,268.747 339.654,267.914 338.5,267C 340.096,263.265 341.429,259.432 342.5,255.5C 342.427,253.973 343.094,252.973 344.5,252.5C 344.5,260.167 344.5,267.833 344.5,275.5C 343.673,280.477 343.006,285.477 342.5,290.5C 343.833,290.5 345.167,290.5 346.5,290.5C 348.224,285.497 350.058,280.497 352,275.5C 352.642,271.509 353.142,267.509 353.5,263.5C 354.404,262.791 354.737,261.791 354.5,260.5C 357.167,260.5 359.833,260.5 362.5,260.5C 360.366,266.037 358.699,271.704 357.5,277.5C 356.833,278.167 356.167,278.833 355.5,279.5C 355.37,282.578 357.203,284.578 361,285.5C 361.5,285.167 362,284.833 362.5,284.5C 361.82,283.14 361.153,281.807 360.5,280.5C 360.5,279.833 360.5,279.167 360.5,278.5C 364.281,273.273 367.281,267.607 369.5,261.5C 371.074,259.898 371.741,257.898 371.5,255.5C 369.079,255.122 366.746,254.455 364.5,253.5C 363.5,253.5 362.5,253.5 361.5,253.5C 360.432,252.566 359.099,252.232 357.5,252.5C 356.979,248.519 356.646,244.519 356.5,240.5C 356.5,239.167 356.5,237.833 356.5,236.5C 358.137,234.525 359.804,232.525 361.5,230.5C 365.5,225.5 369.5,220.5 373.5,215.5C 374.167,215.5 374.5,215.167 374.5,214.5C 376.256,213.448 376.923,211.781 376.5,209.5C 378.167,209.5 379.833,209.5 381.5,209.5C 380.293,206.436 379.293,203.269 378.5,200C 379.47,196.551 380.304,193.051 381,189.5C 381.743,191.645 382.576,191.811 383.5,190C 382.633,186.895 382.299,183.728 382.5,180.5C 384.295,172.86 385.961,165.193 387.5,157.5 Z"/></g>
<g><path style="opacity:1" fill="#eaedf8" d="M 334.5,238.5 C 334.5,244.167 334.5,249.833 334.5,255.5C 331.639,255.513 330.639,256.679 331.5,259C 330.727,261.597 329.727,264.097 328.5,266.5C 322.5,266.5 316.5,266.5 310.5,266.5C 310.5,257.5 310.5,248.5 310.5,239.5C 318.479,238.776 326.479,238.442 334.5,238.5 Z"/></g>
<g><path style="opacity:1" fill="#e7ecf7" d="M 341.5,239.5 C 343.614,240.784 344.614,242.784 344.5,245.5C 344.5,246.833 344.5,248.167 344.5,249.5C 343.833,250.167 343.167,250.833 342.5,251.5C 342.558,249.49 341.892,247.323 340.5,245C 341.233,243.234 341.567,241.401 341.5,239.5 Z"/></g>
<g><path style="opacity:1" fill="#6f9acd" d="M 356.5,240.5 C 356.646,244.519 356.979,248.519 357.5,252.5C 359.099,252.232 360.432,252.566 361.5,253.5C 360.167,253.5 358.833,253.5 357.5,253.5C 353.534,254.162 349.534,254.495 345.5,254.5C 345.825,261.687 345.491,268.687 344.5,275.5C 344.5,267.833 344.5,260.167 344.5,252.5C 344.5,252.167 344.5,251.833 344.5,251.5C 347.819,248.511 350.819,245.178 353.5,241.5C 354.325,240.614 355.325,240.281 356.5,240.5 Z"/></g>
<g><path style="opacity:1" fill="#f7ece4" d="M 339.5,239.5 C 340.167,239.5 340.833,239.5 341.5,239.5C 341.567,241.401 341.233,243.234 340.5,245C 341.892,247.323 342.558,249.49 342.5,251.5C 341.752,253.332 340.752,254.999 339.5,256.5C 338.349,250.985 338.349,245.318 339.5,239.5 Z"/></g>
<g><path style="opacity:1" fill="#d2a8a2" d="M 344.5,249.5 C 344.5,250.167 344.5,250.833 344.5,251.5C 344.5,251.833 344.5,252.167 344.5,252.5C 343.094,252.973 342.427,253.973 342.5,255.5C 341.272,256.306 340.272,257.306 339.5,258.5C 339.5,257.833 339.5,257.167 339.5,256.5C 340.752,254.999 341.752,253.332 342.5,251.5C 343.167,250.833 343.833,250.167 344.5,249.5 Z"/></g>
<g><path style="opacity:1" fill="#3f5aaa" d="M 357.5,253.5 C 358.833,253.5 360.167,253.5 361.5,253.5C 362.5,253.5 363.5,253.5 364.5,253.5C 365.344,255.759 367.011,256.759 369.5,256.5C 369.5,258.167 369.5,259.833 369.5,261.5C 367.558,264.617 365.391,267.617 363,270.5C 361.457,269.423 361.457,268.089 363,266.5C 363.667,263.5 363.667,260.5 363,257.5C 360.564,257.454 358.064,257.121 355.5,256.5C 356.193,255.482 356.859,254.482 357.5,253.5 Z"/></g>
<g><path style="opacity:1" fill="#54669e" d="M 364.5,253.5 C 366.746,254.455 369.079,255.122 371.5,255.5C 371.741,257.898 371.074,259.898 369.5,261.5C 369.5,259.833 369.5,258.167 369.5,256.5C 367.011,256.759 365.344,255.759 364.5,253.5 Z"/></g>
<g><path style="opacity:1" fill="#eaeef9" d="M 429.5,245.5 C 440.5,245.5 451.5,245.5 462.5,245.5C 463.315,246.429 464.148,247.429 465,248.5C 465.499,254.491 465.666,260.491 465.5,266.5C 453.5,266.5 441.5,266.5 429.5,266.5C 429.5,259.5 429.5,252.5 429.5,245.5 Z"/></g>
<g><path style="opacity:1" fill="#efeaeb" d="M 334.5,238.5 C 335.167,238.5 335.833,238.5 336.5,238.5C 335.533,246.414 335.199,254.414 335.5,262.5C 331.478,270.409 330.478,278.743 332.5,287.5C 330.541,281.25 329.874,274.584 330.5,267.5C 330.158,266.662 329.492,266.328 328.5,266.5C 329.727,264.097 330.727,261.597 331.5,259C 330.639,256.679 331.639,255.513 334.5,255.5C 334.5,249.833 334.5,244.167 334.5,238.5 Z"/></g>
<g><path style="opacity:1" fill="#e9b798" d="M 337.5,237.5 C 338.833,237.5 339.5,238.167 339.5,239.5C 338.349,245.318 338.349,250.985 339.5,256.5C 339.5,257.167 339.5,257.833 339.5,258.5C 338.737,260.368 337.737,262.035 336.5,263.5C 336.5,262.833 336.167,262.5 335.5,262.5C 335.199,254.414 335.533,246.414 336.5,238.5C 337.167,238.5 337.5,238.167 337.5,237.5 Z"/></g>
<g><path style="opacity:1" fill="#4d66a9" d="M 357.5,253.5 C 356.859,254.482 356.193,255.482 355.5,256.5C 358.064,257.121 360.564,257.454 363,257.5C 363.667,260.5 363.667,263.5 363,266.5C 361.457,268.089 361.457,269.423 363,270.5C 365.391,267.617 367.558,264.617 369.5,261.5C 367.281,267.607 364.281,273.273 360.5,278.5C 359.391,278.443 358.391,278.11 357.5,277.5C 358.699,271.704 360.366,266.037 362.5,260.5C 359.713,259.523 356.713,259.19 353.5,259.5C 353.5,260.833 353.5,262.167 353.5,263.5C 353.142,267.509 352.642,271.509 352,275.5C 350.058,280.497 348.224,285.497 346.5,290.5C 345.167,290.5 343.833,290.5 342.5,290.5C 343.006,285.477 343.673,280.477 344.5,275.5C 345.491,268.687 345.825,261.687 345.5,254.5C 349.534,254.495 353.534,254.162 357.5,253.5 Z"/></g>
<g><path style="opacity:1" fill="#9cacd5" d="M 362.5,260.5 C 359.833,260.5 357.167,260.5 354.5,260.5C 354.737,261.791 354.404,262.791 353.5,263.5C 353.5,262.167 353.5,260.833 353.5,259.5C 356.713,259.19 359.713,259.523 362.5,260.5 Z"/></g>
<g><path style="opacity:1" fill="#f2f5fd" d="M 159.5,84.5 C 159.579,85.9305 159.246,87.2638 158.5,88.5C 156.457,89.5794 155.124,91.246 154.5,93.5C 164.144,94.4984 173.81,94.8318 183.5,94.5C 184.63,85.3646 185.297,85.3646 185.5,94.5C 195.5,94.5 205.5,94.5 215.5,94.5C 216.59,99.4562 216.924,109.123 216.5,123.5C 226.5,123.5 236.5,123.5 246.5,123.5C 246.833,75.5 247.167,75.5 247.5,123.5C 257.5,123.5 267.5,123.5 277.5,123.5C 277.333,111.495 277.5,99.4954 278,87.5C 279.023,88.6001 279.523,89.9334 279.5,91.5C 278.168,102.18 278.168,112.847 279.5,123.5C 299.5,123.5 319.5,123.5 339.5,123.5C 339.666,119.154 339.499,114.821 339,110.5C 336.928,107.068 336.262,103.402 337,99.5C 337.671,100.252 338.504,100.586 339.5,100.5C 338.76,104.525 339.26,108.525 341,112.5C 343.121,116.407 344.955,120.407 346.5,124.5C 344.167,124.5 341.833,124.5 339.5,124.5C 329.833,124.5 320.167,124.5 310.5,124.5C 309.833,124.5 309.167,124.5 308.5,124.5C 298.833,124.5 289.167,124.5 279.5,124.5C 278.833,124.5 278.167,124.5 277.5,124.5C 267.5,124.5 257.5,124.5 247.5,124.5C 247.17,131.2 247.503,137.866 248.5,144.5C 252.392,145.673 256.059,147.006 259.5,148.5C 255.215,147.705 250.881,147.372 246.5,147.5C 246.5,139.833 246.5,132.167 246.5,124.5C 236.5,124.5 226.5,124.5 216.5,124.5C 216.5,133.5 216.5,142.5 216.5,151.5C 225.654,151.987 234.654,151.32 243.5,149.5C 241.529,151.3 239.862,153.3 238.5,155.5C 231.576,153.537 224.243,152.87 216.5,153.5C 216.5,162.5 216.5,171.5 216.5,180.5C 226.5,180.5 236.5,180.5 246.5,180.5C 246.5,179.5 246.5,178.5 246.5,177.5C 240.5,177.5 234.5,177.5 228.5,177.5C 228.232,175.901 228.566,174.568 229.5,173.5C 229.5,174.5 229.5,175.5 229.5,176.5C 245.675,176.17 261.675,176.504 277.5,177.5C 267.5,177.5 257.5,177.5 247.5,177.5C 247.5,178.5 247.5,179.5 247.5,180.5C 288.833,180.5 330.167,180.5 371.5,180.5C 371.666,171.827 371.5,163.16 371,154.5C 369.008,153.672 367.508,152.339 366.5,150.5C 371.841,153.503 377.175,156.503 382.5,159.5C 379.167,158.5 375.833,157.5 372.5,156.5C 372.5,164.5 372.5,172.5 372.5,180.5C 374.5,180.5 376.5,180.5 378.5,180.5C 377.791,181.404 376.791,181.737 375.5,181.5C 364.167,181.5 352.833,181.5 341.5,181.5C 341.5,190.167 341.5,198.833 341.5,207.5C 347.641,207.101 347.975,208.101 342.5,210.5C 341.614,211.325 341.281,212.325 341.5,213.5C 343.735,213.205 345.735,213.539 347.5,214.5C 346.833,214.5 346.5,214.833 346.5,215.5C 346.167,215.5 345.833,215.5 345.5,215.5C 341.464,215.647 338.131,214.147 335.5,211C 327.173,210.5 318.84,210.334 310.5,210.5C 310.5,219.5 310.5,228.5 310.5,237.5C 319.5,237.5 328.5,237.5 337.5,237.5C 337.5,238.167 337.167,238.5 336.5,238.5C 335.833,238.5 335.167,238.5 334.5,238.5C 326.479,238.442 318.479,238.776 310.5,239.5C 310.5,248.5 310.5,257.5 310.5,266.5C 316.5,266.5 322.5,266.5 328.5,266.5C 329.492,266.328 330.158,266.662 330.5,267.5C 323.833,267.5 317.167,267.5 310.5,267.5C 310.5,276.167 310.5,284.833 310.5,293.5C 317.508,293.666 324.508,293.5 331.5,293C 332.337,291.989 332.67,290.822 332.5,289.5C 333.222,289.918 333.722,290.584 334,291.5C 332.679,281.967 333.512,272.633 336.5,263.5C 337.737,262.035 338.737,260.368 339.5,258.5C 340.272,257.306 341.272,256.306 342.5,255.5C 341.429,259.432 340.096,263.265 338.5,267C 339.654,267.914 339.487,268.747 338,269.5C 336.984,268.366 336.317,268.699 336,270.5C 335.5,276.825 335.334,283.158 335.5,289.5C 337.124,289.64 338.29,288.973 339,287.5C 339.129,281.086 339.796,274.753 341,268.5C 341.935,270.909 342.435,273.409 342.5,276C 341.775,281.143 341.441,286.31 341.5,291.5C 340.022,291.238 338.689,291.571 337.5,292.5C 337.846,293.696 338.346,293.696 339,292.5C 339.232,293.737 339.732,294.737 340.5,295.5C 342.426,296.486 344.426,297.486 346.5,298.5C 345.791,299.404 344.791,299.737 343.5,299.5C 340.5,299.5 337.5,299.5 334.5,299.5C 333.07,298.463 331.403,297.796 329.5,297.5C 328.662,297.842 328.328,298.508 328.5,299.5C 326.246,298.685 323.913,298.019 321.5,297.5C 318.092,299.221 314.425,299.888 310.5,299.5C 310.607,305.88 310.107,312.213 309,318.5C 308.5,311.174 308.334,303.841 308.5,296.5C 298.5,296.5 288.5,296.5 278.5,296.5C 278.215,301.897 278.549,307.23 279.5,312.5C 286.046,313.074 292.379,314.074 298.5,315.5C 288.431,313.951 278.431,314.284 268.5,316.5C 269.122,315.373 269.955,314.373 271,313.5C 272.908,314.079 274.575,314.079 276,313.5C 277.351,307.928 277.851,302.262 277.5,296.5C 267.5,296.5 257.5,296.5 247.5,296.5C 247.5,305.5 247.5,314.5 247.5,323.5C 253.5,323.5 259.5,323.5 265.5,323.5C 265.5,323.833 265.5,324.167 265.5,324.5C 259.5,324.5 253.5,324.5 247.5,324.5C 247.5,333.5 247.5,342.5 247.5,351.5C 270.167,352.167 270.167,352.833 247.5,353.5C 247.5,358.5 247.5,363.5 247.5,368.5C 253.358,368.178 259.025,368.511 264.5,369.5C 256.778,369.767 249.111,369.434 241.5,368.5C 241.5,368.167 241.5,367.833 241.5,367.5C 243.167,367.5 244.833,367.5 246.5,367.5C 246.099,353.251 246.099,338.917 246.5,324.5C 236.5,324.5 226.5,324.5 216.5,324.5C 216.5,330.5 216.5,336.5 216.5,342.5C 216.167,342.5 215.833,342.5 215.5,342.5C 215.5,336.5 215.5,330.5 215.5,324.5C 205.5,324.5 195.5,324.5 185.5,324.5C 185.5,333.5 185.5,342.5 185.5,351.5C 189.929,351.978 194.096,351.312 198,349.5C 199.406,350.414 200.906,351.08 202.5,351.5C 202.5,354.833 202.5,358.167 202.5,361.5C 192.263,359.535 182.596,356.201 173.5,351.5C 176.833,351.5 180.167,351.5 183.5,351.5C 183.5,342.5 183.5,333.5 183.5,324.5C 165.136,323.847 147.136,324.513 129.5,326.5C 127.596,326.262 126.262,325.262 125.5,323.5C 134.5,323.5 143.5,323.5 152.5,323.5C 152.5,314.5 152.5,305.5 152.5,296.5C 142.5,296.5 132.5,296.5 122.5,296.5C 122.5,304.5 122.5,312.5 122.5,320.5C 114.344,313.345 107.677,305.012 102.5,295.5C 107.388,295.927 109.388,298.593 108.5,303.5C 113.282,302.454 115.116,304.121 114,308.5C 116.899,311.267 118.899,310.6 120,306.5C 120.333,308.833 120.667,311.167 121,313.5C 121.499,307.843 121.666,302.176 121.5,296.5C 118.927,296.852 116.594,296.352 114.5,295C 127.162,294.5 139.829,294.333 152.5,294.5C 152.5,285.5 152.5,276.5 152.5,267.5C 142.833,267.5 133.167,267.5 123.5,267.5C 122.171,294.113 121.504,294.113 121.5,267.5C 129.789,266.488 140.123,266.155 152.5,266.5C 152.5,257.167 152.5,247.833 152.5,238.5C 142.828,238.334 133.161,238.5 123.5,239C 122.682,247.422 122.182,255.922 122,264.5C 121.5,255.84 121.334,247.173 121.5,238.5C 112.167,238.167 112.167,237.833 121.5,237.5C 121.5,234.833 121.5,232.167 121.5,229.5C 115.642,229.822 109.975,229.489 104.5,228.5C 115.833,228.5 127.167,228.5 138.5,228.5C 133.349,229.327 128.016,229.827 122.5,230C 123.435,232.381 123.768,234.881 123.5,237.5C 143.844,237.833 164.178,237.5 184.5,236.5C 183.529,227.888 183.196,219.221 183.5,210.5C 173.833,210.5 164.167,210.5 154.5,210.5C 154.5,215.833 154.5,221.167 154.5,226.5C 152.5,226.167 150.5,225.833 148.5,225.5C 148.472,222.749 147.472,220.415 145.5,218.5C 142.833,218.167 140.167,217.833 137.5,217.5C 136.048,213.473 133.382,210.806 129.5,209.5C 137.079,209.603 144.746,209.27 152.5,208.5C 152.5,199.5 152.5,190.5 152.5,181.5C 142.5,181.5 132.5,181.5 122.5,181.5C 122.5,190.833 122.5,200.167 122.5,209.5C 123.5,209.5 124.5,209.5 125.5,209.5C 124.217,211.623 122.717,213.623 121,215.5C 120.447,222.862 118.281,223.196 114.5,216.5C 117.325,216.919 119.491,215.919 121,213.5C 121.5,202.839 121.667,192.172 121.5,181.5C 110.833,181.167 110.833,180.833 121.5,180.5C 121.5,171.5 121.5,162.5 121.5,153.5C 119.833,153.5 118.167,153.5 116.5,153.5C 119.796,144.241 124.129,135.575 129.5,127.5C 129.657,128.873 129.49,130.207 129,131.5C 126.094,135.065 124.094,139.065 123,143.5C 122.289,145.899 122.456,148.232 123.5,150.5C 133.144,151.498 142.81,151.832 152.5,151.5C 152.5,142.5 152.5,133.5 152.5,124.5C 136.5,124.167 136.5,123.833 152.5,123.5C 152.832,114.475 152.498,105.475 151.5,96.5C 149.841,99.4818 147.508,101.815 144.5,103.5C 148.395,96.2745 153.395,89.9412 159.5,84.5 Z"/></g>
<g><path style="opacity:1" fill="#eaedf8" d="M 185.5,238.5 C 195.273,239.285 205.273,239.618 215.5,239.5C 215.5,248.5 215.5,257.5 215.5,266.5C 205.5,266.5 195.5,266.5 185.5,266.5C 185.5,257.167 185.5,247.833 185.5,238.5 Z"/></g>
<g><path style="opacity:1" fill="#eaedf9" d="M 278.5,239.5 C 288.5,239.5 298.5,239.5 308.5,239.5C 308.5,248.5 308.5,257.5 308.5,266.5C 298.5,266.5 288.5,266.5 278.5,266.5C 278.5,257.5 278.5,248.5 278.5,239.5 Z"/></g>
<g><path style="opacity:1" fill="#eaedf9" d="M 247.5,239.5 C 257.172,239.334 266.839,239.5 276.5,240C 277.484,248.749 277.817,257.582 277.5,266.5C 267.5,266.5 257.5,266.5 247.5,266.5C 247.5,257.5 247.5,248.5 247.5,239.5 Z"/></g>
<g><path style="opacity:1" fill="#eaedf8" d="M 216.5,239.5 C 226.5,239.5 236.5,239.5 246.5,239.5C 246.5,248.5 246.5,257.5 246.5,266.5C 236.5,266.5 226.5,266.5 216.5,266.5C 216.5,257.5 216.5,248.5 216.5,239.5 Z"/></g>
<g><path style="opacity:1" fill="#eaedf8" d="M 154.5,239.5 C 164.167,239.5 173.833,239.5 183.5,239.5C 183.5,248.5 183.5,257.5 183.5,266.5C 175.493,266.666 167.493,266.5 159.5,266C 157.695,264.559 155.695,264.392 153.5,265.5C 153.579,256.9 153.912,248.233 154.5,239.5 Z"/></g>
<g><path style="opacity:1" fill="#eaedf8" d="M 278.5,210.5 C 288.539,210.242 298.539,210.576 308.5,211.5C 308.5,220.167 308.5,228.833 308.5,237.5C 298.5,237.5 288.5,237.5 278.5,237.5C 278.598,228.32 278.598,219.32 278.5,210.5 Z"/></g>
<g><path style="opacity:1" fill="#eaedf8" d="M 247.5,210.5 C 257.5,210.5 267.5,210.5 277.5,210.5C 277.5,219.5 277.5,228.5 277.5,237.5C 267.5,237.5 257.5,237.5 247.5,237.5C 247.5,228.5 247.5,219.5 247.5,210.5 Z"/></g>
<g><path style="opacity:1" fill="#eaeef9" d="M 216.5,181.5 C 226.5,181.5 236.5,181.5 246.5,181.5C 246.5,200.167 246.5,218.833 246.5,237.5C 236.5,237.5 226.5,237.5 216.5,237.5C 216.5,218.833 216.5,200.167 216.5,181.5 Z"/></g>
<g><path style="opacity:1" fill="#eaedf9" d="M 247.5,181.5 C 257.5,181.5 267.5,181.5 277.5,181.5C 277.5,190.833 277.5,200.167 277.5,209.5C 267.5,209.5 257.5,209.5 247.5,209.5C 247.5,200.167 247.5,190.833 247.5,181.5 Z"/></g>
<g><path style="opacity:1" fill="#eaeef9" d="M 310.5,181.5 C 320.5,181.5 330.5,181.5 340.5,181.5C 340.666,190.173 340.5,198.84 340,207.5C 334.662,209.039 329.162,209.706 323.5,209.5C 319.252,209.485 315.085,209.152 311,208.5C 310.5,199.506 310.334,190.506 310.5,181.5 Z"/></g>
<g><path style="opacity:1" fill="#eaedf8" d="M 154.5,181.5 C 163.887,181.193 173.22,181.527 182.5,182.5C 183.498,191.141 183.831,199.808 183.5,208.5C 174.169,209.08 164.836,208.746 155.5,207.5C 154.502,198.859 154.169,190.192 154.5,181.5 Z"/></g>
<g><path style="opacity:1" fill="#eaedf8" d="M 129.5,209.5 C 128.167,209.5 126.833,209.5 125.5,209.5C 124.5,209.5 123.5,209.5 122.5,209.5C 122.5,200.167 122.5,190.833 122.5,181.5C 132.5,181.5 142.5,181.5 152.5,181.5C 152.5,190.5 152.5,199.5 152.5,208.5C 144.746,209.27 137.079,209.603 129.5,209.5 Z"/></g>
<g><path style="opacity:1" fill="#eaedf8" d="M 279.5,181.5 C 289.167,181.5 298.833,181.5 308.5,181.5C 308.832,190.857 308.498,200.19 307.5,209.5C 298.22,208.527 288.887,208.193 279.5,208.5C 279.5,199.5 279.5,190.5 279.5,181.5 Z"/></g>
<g><path style="opacity:1" fill="#eaeef8" d="M 185.5,181.5 C 195.22,181.192 204.887,181.526 214.5,182.5C 215.498,191.475 215.832,200.475 215.5,209.5C 204.833,209.833 204.833,210.167 215.5,210.5C 215.418,219.484 215.418,228.317 215.5,237C 205.506,237.5 195.506,237.666 185.5,237.5C 185.5,228.5 185.5,219.5 185.5,210.5C 193.5,210.167 193.5,209.833 185.5,209.5C 185.5,200.167 185.5,190.833 185.5,181.5 Z"/></g>
<g><path style="opacity:1" fill="#eaeef8" d="M 238.5,155.5 C 236.762,160.217 236.096,165.217 236.5,170.5C 233.369,169.908 231.036,170.908 229.5,173.5C 228.566,174.568 228.232,175.901 228.5,177.5C 234.5,177.5 240.5,177.5 246.5,177.5C 246.5,178.5 246.5,179.5 246.5,180.5C 236.5,180.5 226.5,180.5 216.5,180.5C 216.5,171.5 216.5,162.5 216.5,153.5C 224.243,152.87 231.576,153.537 238.5,155.5 Z"/></g>
<g><path style="opacity:1" fill="#eaedf8" d="M 154.5,153.5 C 164.5,153.5 174.5,153.5 184.5,153.5C 184.833,157.5 185.167,157.5 185.5,153.5C 195.5,153.5 205.5,153.5 215.5,153.5C 215.5,162.5 215.5,171.5 215.5,180.5C 205.5,180.5 195.5,180.5 185.5,180.5C 185.167,149.833 184.833,149.833 184.5,180.5C 174.5,180.5 164.5,180.5 154.5,180.5C 154.5,171.5 154.5,162.5 154.5,153.5 Z"/></g>
<g><path style="opacity:1" fill="#eaedf8" d="M 122.5,153.5 C 132.5,153.5 142.5,153.5 152.5,153.5C 152.5,162.5 152.5,171.5 152.5,180.5C 142.5,180.5 132.5,180.5 122.5,180.5C 122.5,171.5 122.5,162.5 122.5,153.5 Z"/></g>
<g><path style="opacity:1" fill="#eaeef8" d="M 185.5,124.5 C 195.5,124.5 205.5,124.5 215.5,124.5C 215.5,133.5 215.5,142.5 215.5,151.5C 205.5,151.5 195.5,151.5 185.5,151.5C 185.5,142.5 185.5,133.5 185.5,124.5 Z"/></g>
<g><path style="opacity:1" fill="#eaedf8" d="M 154.5,124.5 C 164.167,124.5 173.833,124.5 183.5,124.5C 183.5,133.5 183.5,142.5 183.5,151.5C 173.833,151.5 164.167,151.5 154.5,151.5C 154.5,142.5 154.5,133.5 154.5,124.5 Z"/></g>
<g><path style="opacity:1" fill="#eaedf8" d="M 154.5,96.5 C 164.167,96.5 173.833,96.5 183.5,96.5C 183.5,105.5 183.5,114.5 183.5,123.5C 173.833,123.5 164.167,123.5 154.5,123.5C 154.5,114.5 154.5,105.5 154.5,96.5 Z"/></g>
<g><path style="opacity:1" fill="#eaedf8" d="M 185.5,96.5 C 195.5,96.5 205.5,96.5 215.5,96.5C 215.817,105.418 215.484,114.251 214.5,123C 204.839,123.5 195.172,123.666 185.5,123.5C 185.5,114.5 185.5,105.5 185.5,96.5 Z"/></g>
<g><path style="opacity:1" fill="#eaedf8" d="M 279.5,267.5 C 289.167,267.5 298.833,267.5 308.5,267.5C 308.5,276.5 308.5,285.5 308.5,294.5C 298.5,294.5 288.5,294.5 278.5,294.5C 279.415,285.54 279.748,276.54 279.5,267.5 Z"/></g>
<g><path style="opacity:1" fill="#f0f4fb" d="M 429.5,174.5 C 438.338,175.968 447.005,178.134 455.5,181C 460.403,182.336 464.737,184.503 468.5,187.5C 466.323,187.414 464.323,186.747 462.5,185.5C 461.914,185.709 461.414,186.043 461,186.5C 458.12,185.177 455.287,183.677 452.5,182C 446.843,181.501 441.176,181.334 435.5,181.5C 435.5,190.833 435.5,200.167 435.5,209.5C 445.5,209.5 455.5,209.5 465.5,209.5C 465.334,203.491 465.501,197.491 466,191.5C 466.5,206.83 466.667,222.163 466.5,237.5C 468.199,237.34 469.866,237.506 471.5,238C 469.956,238.29 468.623,238.956 467.5,240C 469.715,240.388 471.048,241.388 471.5,243C 473.577,243.192 475.577,243.692 477.5,244.5C 474.101,245.288 470.767,246.288 467.5,247.5C 466.504,253.798 466.17,260.132 466.5,266.5C 475.833,266.833 475.833,267.167 466.5,267.5C 466.5,276.5 466.5,285.5 466.5,294.5C 468.5,294.5 470.5,294.5 472.5,294.5C 469.317,300.857 465.15,306.523 460,311.5C 459.333,313.5 459.333,315.5 460,317.5C 460.278,316.584 460.778,315.918 461.5,315.5C 461.369,316.239 461.536,316.906 462,317.5C 463.011,316.663 464.178,316.33 465.5,316.5C 463.858,317.803 462.191,319.136 460.5,320.5C 460.279,317.903 459.779,317.903 459,320.5C 458.667,318.5 458.333,316.5 458,314.5C 457.333,315.167 456.667,315.833 456,316.5C 455.668,321.19 456.002,325.857 457,330.5C 457.21,328.942 457.71,327.609 458.5,326.5C 458.263,327.791 458.596,328.791 459.5,329.5C 458.928,331.255 458.094,332.922 457,334.5C 456.086,330.815 455.419,331.148 455,335.5C 454.667,333.833 454.333,332.167 454,330.5C 453.487,331.527 452.987,332.527 452.5,333.5C 450.539,331.688 448.206,330.688 445.5,330.5C 447.989,329.742 450.322,329.742 452.5,330.5C 451.407,326.892 451.24,323.225 452,319.5C 452.17,321.715 452.837,323.715 454,325.5C 454.635,320.593 454.135,315.926 452.5,311.5C 452.5,311.167 452.5,310.833 452.5,310.5C 453.5,310.5 454.5,310.5 455.5,310.5C 455.351,311.552 455.517,312.552 456,313.5C 459.262,310.6 461.762,307.266 463.5,303.5C 466.302,300.689 466.135,298.022 463,295.5C 453.643,296.269 444.476,296.269 435.5,295.5C 435.382,302.14 435.048,308.807 434.5,315.5C 433.08,308.892 431.414,302.558 429.5,296.5C 429.5,286.5 429.5,276.5 429.5,266.5C 441.5,266.5 453.5,266.5 465.5,266.5C 465.666,260.491 465.499,254.491 465,248.5C 464.148,247.429 463.315,246.429 462.5,245.5C 464.631,244.686 466.964,244.186 469.5,244C 466.932,240.201 463.599,239.367 459.5,241.5C 459.5,240.167 459.5,238.833 459.5,237.5C 461.5,237.5 463.5,237.5 465.5,237.5C 465.5,228.5 465.5,219.5 465.5,210.5C 455.5,210.5 445.5,210.5 435.5,210.5C 435.925,217.615 435.425,224.615 434,231.5C 433.561,221.302 432.727,211.136 431.5,201C 431.651,197.047 432.318,193.213 433.5,189.5C 433.125,187.541 432.459,185.707 431.5,184C 432.234,181.907 431.567,181.407 429.5,182.5C 429.5,179.833 429.5,177.167 429.5,174.5 Z"/></g>
<g><path style="opacity:1" fill="#eaedf8" d="M 330.5,267.5 C 329.874,274.584 330.541,281.25 332.5,287.5C 332.5,288.167 332.5,288.833 332.5,289.5C 332.67,290.822 332.337,291.989 331.5,293C 324.508,293.5 317.508,293.666 310.5,293.5C 310.5,284.833 310.5,276.167 310.5,267.5C 317.167,267.5 323.833,267.5 330.5,267.5 Z"/></g>
<g><path style="opacity:0.996" fill="#eaeef8" d="M 116.5,153.5 C 118.167,153.5 119.833,153.5 121.5,153.5C 121.5,162.5 121.5,171.5 121.5,180.5C 110.833,180.833 110.833,181.167 121.5,181.5C 121.667,192.172 121.5,202.839 121,213.5C 119.491,215.919 117.325,216.919 114.5,216.5C 109.219,217.016 106.719,220.016 107,225.5C 105.053,226.11 103.219,226.943 101.5,228C 102.448,228.483 103.448,228.649 104.5,228.5C 109.975,229.489 115.642,229.822 121.5,229.5C 121.5,232.167 121.5,234.833 121.5,237.5C 112.167,237.833 112.167,238.167 121.5,238.5C 121.334,247.173 121.5,255.84 122,264.5C 122.182,255.922 122.682,247.422 123.5,239C 133.161,238.5 142.828,238.334 152.5,238.5C 152.5,247.833 152.5,257.167 152.5,266.5C 140.123,266.155 129.789,266.488 121.5,267.5C 121.504,294.113 122.171,294.113 123.5,267.5C 133.167,267.5 142.833,267.5 152.5,267.5C 152.5,276.5 152.5,285.5 152.5,294.5C 139.829,294.333 127.162,294.5 114.5,295C 116.594,296.352 118.927,296.852 121.5,296.5C 121.666,302.176 121.499,307.843 121,313.5C 120.667,311.167 120.333,308.833 120,306.5C 118.899,310.6 116.899,311.267 114,308.5C 115.116,304.121 113.282,302.454 108.5,303.5C 109.388,298.593 107.388,295.927 102.5,295.5C 91.877,276.419 88.2103,255.919 91.5,234C 89.5,233 87.5,232 85.5,231C 86.6667,227.833 88.1667,227.667 90,230.5C 96.7292,204.147 105.562,178.48 116.5,153.5 Z"/></g>
<g><path style="opacity:1" fill="#eaedf8" d="M 154.5,267.5 C 174.833,267.5 195.167,267.5 215.5,267.5C 215.5,276.5 215.5,285.5 215.5,294.5C 205.5,294.5 195.5,294.5 185.5,294.5C 185.167,259.833 184.833,259.833 184.5,294.5C 174.5,294.5 164.5,294.5 154.5,294.5C 154.5,285.5 154.5,276.5 154.5,267.5 Z"/></g>
<g><path style="opacity:1" fill="#eaedf8" d="M 216.5,267.5 C 226.5,267.5 236.5,267.5 246.5,267.5C 246.5,276.5 246.5,285.5 246.5,294.5C 236.5,294.5 226.5,294.5 216.5,294.5C 216.5,285.5 216.5,276.5 216.5,267.5 Z"/></g>
<g><path style="opacity:1" fill="#eaedf8" d="M 247.5,267.5 C 257.5,267.5 267.5,267.5 277.5,267.5C 277.817,276.418 277.484,285.251 276.5,294C 266.839,294.5 257.172,294.666 247.5,294.5C 247.5,285.5 247.5,276.5 247.5,267.5 Z"/></g>
<g><path style="opacity:1" fill="#eaedf8" d="M 435.5,267.5 C 445.5,267.5 455.5,267.5 465.5,267.5C 465.5,276.5 465.5,285.5 465.5,294.5C 455.494,294.666 445.494,294.5 435.5,294C 435.274,285.265 435.274,276.431 435.5,267.5 Z"/></g>
<g><path style="opacity:1" fill="#d7b2a7" d="M 335.5,262.5 C 336.167,262.5 336.5,262.833 336.5,263.5C 333.512,272.633 332.679,281.967 334,291.5C 333.722,290.584 333.222,289.918 332.5,289.5C 332.5,288.833 332.5,288.167 332.5,287.5C 330.478,278.743 331.478,270.409 335.5,262.5 Z"/></g>
<g><path style="opacity:1" fill="#979dc5" d="M 357.5,277.5 C 358.391,278.11 359.391,278.443 360.5,278.5C 360.5,279.167 360.5,279.833 360.5,280.5C 358.883,279.962 357.216,279.629 355.5,279.5C 356.167,278.833 356.833,278.167 357.5,277.5 Z"/></g>
<g><path style="opacity:0.004" fill="#fefffe" d="M 56.5,279.5 C 57.8333,280.167 57.8333,280.167 56.5,279.5 Z"/></g>
<g><path style="opacity:1" fill="#374780" d="M 355.5,279.5 C 357.216,279.629 358.883,279.962 360.5,280.5C 361.153,281.807 361.82,283.14 362.5,284.5C 362,284.833 361.5,285.167 361,285.5C 357.203,284.578 355.37,282.578 355.5,279.5 Z"/></g>
<g><path style="opacity:0.004" fill="#fefffe" d="M 494.5,283.5 C 495.833,284.167 495.833,284.167 494.5,283.5 Z"/></g>
<g><path style="opacity:1" fill="#f6fbfd" d="M 365.5,297.5 C 360.118,299.444 354.784,299.777 349.5,298.5C 348.925,296.589 347.925,294.922 346.5,293.5C 352.623,293.294 358.957,293.294 365.5,293.5C 365.5,294.833 365.5,296.167 365.5,297.5 Z"/></g>
<g><path style="opacity:1" fill="#3d4d84" d="M 346.5,293.5 C 347.925,294.922 348.925,296.589 349.5,298.5C 348.5,298.5 347.5,298.5 346.5,298.5C 344.426,297.486 342.426,296.486 340.5,295.5C 340.5,294.5 340.5,293.5 340.5,292.5C 342.565,292.517 344.565,292.85 346.5,293.5 Z"/></g>
<g><path style="opacity:1" fill="#eaedf8" d="M 185.5,296.5 C 195.5,296.5 205.5,296.5 215.5,296.5C 215.443,305.543 215.443,314.377 215.5,323C 205.506,323.5 195.506,323.666 185.5,323.5C 185.5,314.5 185.5,305.5 185.5,296.5 Z"/></g>
<g><path style="opacity:1" fill="#eaeef9" d="M 390.5,267.5 C 390.5,286.167 390.5,304.833 390.5,323.5C 384.5,323.5 378.5,323.5 372.5,323.5C 372.5,306.167 372.5,288.833 372.5,271.5C 373.5,271.5 374.5,271.5 375.5,271.5C 375.5,270.167 375.5,268.833 375.5,267.5C 380.5,267.5 385.5,267.5 390.5,267.5 Z"/></g>
<g><path style="opacity:1" fill="#e9eefa" d="M 463.5,303.5 C 463.895,300.477 462.895,299.477 460.5,300.5C 457.762,303.309 456.096,306.642 455.5,310.5C 454.5,310.5 453.5,310.5 452.5,310.5C 450.933,307.033 449.099,303.7 447,300.5C 445.989,299.663 444.822,299.33 443.5,299.5C 444.492,302.823 445.492,306.156 446.5,309.5C 445.552,313.696 445.219,317.696 445.5,321.5C 443.388,320.56 441.388,319.394 439.5,318C 430.592,317.303 430.259,318.636 438.5,322C 440.866,322.44 443.199,322.94 445.5,323.5C 446.933,324.833 448.267,326.333 449.5,328C 445.216,327.543 440.882,327.543 436.5,328C 436.043,328.414 435.709,328.914 435.5,329.5C 438.768,330.487 442.102,330.82 445.5,330.5C 439.933,330.923 434.6,332.256 429.5,334.5C 429.5,321.833 429.5,309.167 429.5,296.5C 431.414,302.558 433.08,308.892 434.5,315.5C 435.048,308.807 435.382,302.14 435.5,295.5C 444.476,296.269 453.643,296.269 463,295.5C 466.135,298.022 466.302,300.689 463.5,303.5 Z"/></g>
<g><path style="opacity:1" fill="#eaedf8" d="M 216.5,296.5 C 226.5,296.5 236.5,296.5 246.5,296.5C 246.5,305.5 246.5,314.5 246.5,323.5C 236.5,323.5 226.5,323.5 216.5,323.5C 216.5,314.5 216.5,305.5 216.5,296.5 Z"/></g>
<g><path style="opacity:0.999" fill="#eaedf8" d="M 125.5,323.5 C 124.167,322.833 123.167,321.833 122.5,320.5C 122.5,312.5 122.5,304.5 122.5,296.5C 132.5,296.5 142.5,296.5 152.5,296.5C 152.5,305.5 152.5,314.5 152.5,323.5C 143.5,323.5 134.5,323.5 125.5,323.5 Z"/></g>
<g><path style="opacity:1" fill="#eaeef8" d="M 154.5,296.5 C 164.5,296.5 174.5,296.5 184.5,296.5C 184.5,305.5 184.5,314.5 184.5,323.5C 174.5,323.5 164.5,323.5 154.5,323.5C 154.5,314.5 154.5,305.5 154.5,296.5 Z"/></g>
<g><path style="opacity:1" fill="#eaedf8" d="M 268.5,316.5 C 266.302,316.409 265.969,317.075 267.5,318.5C 265.744,319.552 265.077,321.219 265.5,323.5C 259.5,323.5 253.5,323.5 247.5,323.5C 247.5,314.5 247.5,305.5 247.5,296.5C 257.5,296.5 267.5,296.5 277.5,296.5C 277.851,302.262 277.351,307.928 276,313.5C 274.575,314.079 272.908,314.079 271,313.5C 269.955,314.373 269.122,315.373 268.5,316.5 Z"/></g>
<g><path style="opacity:1" fill="#bfd6eb" d="M 463.5,303.5 C 461.762,307.266 459.262,310.6 456,313.5C 455.517,312.552 455.351,311.552 455.5,310.5C 456.096,306.642 457.762,303.309 460.5,300.5C 462.895,299.477 463.895,300.477 463.5,303.5 Z"/></g>
<g><path style="opacity:0.004" fill="#fefffe" d="M 44.5,310.5 C 45.8333,311.167 45.8333,311.167 44.5,310.5 Z"/></g>
<g><path style="opacity:1" fill="#8fb5da" d="M 452.5,310.5 C 452.5,310.833 452.5,311.167 452.5,311.5C 452.662,313.527 452.495,315.527 452,317.5C 450.391,314.593 448.558,311.927 446.5,309.5C 445.492,306.156 444.492,302.823 443.5,299.5C 444.822,299.33 445.989,299.663 447,300.5C 449.099,303.7 450.933,307.033 452.5,310.5 Z"/></g>
<g><path style="opacity:1" fill="#b6d1e8" d="M 467.5,310.5 C 470.187,310.336 472.854,310.503 475.5,311C 477.303,311.637 478.636,312.803 479.5,314.5C 475.952,314.619 472.285,314.785 468.5,315C 467.263,315.232 466.263,315.732 465.5,316.5C 464.178,316.33 463.011,316.663 462,317.5C 461.536,316.906 461.369,316.239 461.5,315.5C 462.593,312.739 464.593,311.073 467.5,310.5 Z"/></g>
<g><path style="opacity:0.004" fill="#fefffe" d="M 71.5,313.5 C 72.8333,314.167 72.8333,314.167 71.5,313.5 Z"/></g>
<g><path style="opacity:1" fill="#f7fbfc" d="M 298.5,315.5 C 299.718,316.161 301.051,316.828 302.5,317.5C 302.137,318.183 301.804,318.85 301.5,319.5C 291.64,321.329 281.64,321.996 271.5,321.5C 271.5,320.833 271.167,320.5 270.5,320.5C 270.158,319.662 269.492,319.328 268.5,319.5C 268.5,318.833 268.167,318.5 267.5,318.5C 265.969,317.075 266.302,316.409 268.5,316.5C 278.431,314.284 288.431,313.951 298.5,315.5 Z"/></g>
<g><path style="opacity:0.796" fill="#e3ecf3" d="M 467.5,310.5 C 474.934,307.881 480.267,310.214 483.5,317.5C 483.167,318.167 482.833,318.833 482.5,319.5C 477.157,316.297 471.491,315.297 465.5,316.5C 466.263,315.732 467.263,315.232 468.5,315C 472.285,314.785 475.952,314.619 479.5,314.5C 478.636,312.803 477.303,311.637 475.5,311C 472.854,310.503 470.187,310.336 467.5,310.5 Z"/></g>
<g><path style="opacity:1" fill="#abcae1" d="M 445.5,321.5 C 446.506,322.396 446.506,323.062 445.5,323.5C 443.199,322.94 440.866,322.44 438.5,322C 430.259,318.636 430.592,317.303 439.5,318C 441.388,319.394 443.388,320.56 445.5,321.5 Z"/></g>
<g><path style="opacity:0.827" fill="#b6cde0" d="M 473.5,326.5 C 471.473,326.662 469.473,326.495 467.5,326C 468.381,325.292 469.047,324.458 469.5,323.5C 473.289,321.991 476.622,322.658 479.5,325.5C 477.604,326.466 475.604,326.799 473.5,326.5 Z"/></g>
<g><path style="opacity:1" fill="#eaeef8" d="M 215.5,342.5 C 212.286,343.282 208.952,344.115 205.5,345C 204.66,346.666 205.16,346.833 207,345.5C 207.483,346.448 207.649,347.448 207.5,348.5C 206.833,348.5 206.167,348.5 205.5,348.5C 204.791,347.596 203.791,347.263 202.5,347.5C 202.5,348.833 202.5,350.167 202.5,351.5C 200.906,351.08 199.406,350.414 198,349.5C 194.096,351.312 189.929,351.978 185.5,351.5C 185.5,342.5 185.5,333.5 185.5,324.5C 195.5,324.5 205.5,324.5 215.5,324.5C 215.5,330.5 215.5,336.5 215.5,342.5 Z"/></g>
<g><path style="opacity:1" fill="#e9eef8" d="M 265.5,324.5 C 265.5,339.5 265.5,354.5 265.5,369.5C 265.167,369.5 264.833,369.5 264.5,369.5C 259.025,368.511 253.358,368.178 247.5,368.5C 247.5,363.5 247.5,358.5 247.5,353.5C 270.167,352.833 270.167,352.167 247.5,351.5C 247.5,342.5 247.5,333.5 247.5,324.5C 253.5,324.5 259.5,324.5 265.5,324.5 Z"/></g>
<g><path style="opacity:1" fill="#ebeef8" d="M 173.5,351.5 C 160.116,347.474 147.782,341.308 136.5,333C 133.712,331.281 131.379,329.115 129.5,326.5C 147.136,324.513 165.136,323.847 183.5,324.5C 183.5,333.5 183.5,342.5 183.5,351.5C 180.167,351.5 176.833,351.5 173.5,351.5 Z"/></g>
<g><path style="opacity:1" fill="#eaeef9" d="M 241.5,367.5 C 242.126,360.416 241.459,353.75 239.5,347.5C 239.611,346.883 239.944,346.383 240.5,346C 232.475,344.117 224.475,342.951 216.5,342.5C 216.5,336.5 216.5,330.5 216.5,324.5C 226.5,324.5 236.5,324.5 246.5,324.5C 246.099,338.917 246.099,353.251 246.5,367.5C 244.833,367.5 243.167,367.5 241.5,367.5 Z"/></g>
<g><path style="opacity:1" fill="#ebeef9" d="M 328.5,299.5 C 328.5,321.833 328.5,344.167 328.5,366.5C 320.518,367.646 312.518,368.646 304.5,369.5C 304.83,352.658 304.497,335.992 303.5,319.5C 302.833,319.5 302.167,319.5 301.5,319.5C 301.804,318.85 302.137,318.183 302.5,317.5C 301.051,316.828 299.718,316.161 298.5,315.5C 292.379,314.074 286.046,313.074 279.5,312.5C 278.549,307.23 278.215,301.897 278.5,296.5C 288.5,296.5 298.5,296.5 308.5,296.5C 308.334,303.841 308.5,311.174 309,318.5C 310.107,312.213 310.607,305.88 310.5,299.5C 314.425,299.888 318.092,299.221 321.5,297.5C 323.913,298.019 326.246,298.685 328.5,299.5 Z"/></g>
<g><path style="opacity:1" fill="#c5dcf1" d="M 329.5,297.5 C 329.5,329.833 329.5,362.167 329.5,394.5C 329.842,395.338 330.508,395.672 331.5,395.5C 343.019,396.757 354.686,396.757 366.5,395.5C 366.5,363.833 366.5,332.167 366.5,300.5C 366.5,299.5 366.5,298.5 366.5,297.5C 367.493,305.984 367.826,314.651 367.5,323.5C 367.5,345.167 367.5,366.833 367.5,388.5C 367.813,391.247 367.48,393.914 366.5,396.5C 365.5,397 364.5,397.5 363.5,398C 351.051,398.433 338.718,398.599 326.5,398.5C 324.876,393.972 325.542,389.972 328.5,386.5C 328.5,379.833 328.5,373.167 328.5,366.5C 328.5,344.167 328.5,321.833 328.5,299.5C 328.328,298.508 328.662,297.842 329.5,297.5 Z"/></g>
<g><path style="opacity:1" fill="#9cc1e7" d="M 334.5,299.5 C 337.5,299.5 340.5,299.5 343.5,299.5C 342.708,300.967 342.708,302.3 343.5,303.5C 344.308,303.192 344.975,302.692 345.5,302C 352.518,301.624 359.518,301.124 366.5,300.5C 366.5,332.167 366.5,363.833 366.5,395.5C 354.686,396.757 343.019,396.757 331.5,395.5C 332.5,395.5 333.5,395.5 334.5,395.5C 334.5,363.833 334.5,332.167 334.5,300.5C 334.5,300.167 334.5,299.833 334.5,299.5 Z"/></g>
<g><path style="opacity:1" fill="#a8c6dd" d="M 365.5,297.5 C 365.833,297.5 366.167,297.5 366.5,297.5C 366.5,298.5 366.5,299.5 366.5,300.5C 359.518,301.124 352.518,301.624 345.5,302C 344.975,302.692 344.308,303.192 343.5,303.5C 342.708,302.3 342.708,300.967 343.5,299.5C 344.791,299.737 345.791,299.404 346.5,298.5C 347.5,298.5 348.5,298.5 349.5,298.5C 354.784,299.777 360.118,299.444 365.5,297.5 Z"/></g>
<g><path style="opacity:1" fill="#f1f4fb" d="M 390.5,266.5 C 390.5,266.833 390.5,267.167 390.5,267.5C 385.5,267.5 380.5,267.5 375.5,267.5C 375.5,268.833 375.5,270.167 375.5,271.5C 374.5,271.5 373.5,271.5 372.5,271.5C 372.5,288.833 372.5,306.167 372.5,323.5C 378.5,323.5 384.5,323.5 390.5,323.5C 390.5,323.833 390.5,324.167 390.5,324.5C 384.5,324.5 378.5,324.5 372.5,324.5C 372.5,333.5 372.5,342.5 372.5,351.5C 378.227,351.26 383.894,351.593 389.5,352.5C 382.81,355.451 375.81,357.784 368.5,359.5C 368.5,368.833 368.5,378.167 368.5,387.5C 374.026,387.179 379.36,387.512 384.5,388.5C 378.833,388.5 373.167,388.5 367.5,388.5C 367.5,366.833 367.5,345.167 367.5,323.5C 368.833,323.5 370.167,323.5 371.5,323.5C 371.815,304.299 371.482,285.133 370.5,266C 371.354,260.464 372.354,260.298 373.5,265.5C 379.128,266.495 384.794,266.829 390.5,266.5 Z"/></g>
<g><path style="opacity:0.978" fill="#c6daea" d="M 446.5,309.5 C 448.558,311.927 450.391,314.593 452,317.5C 452.495,315.527 452.662,313.527 452.5,311.5C 454.135,315.926 454.635,320.593 454,325.5C 452.837,323.715 452.17,321.715 452,319.5C 451.24,323.225 451.407,326.892 452.5,330.5C 450.322,329.742 447.989,329.742 445.5,330.5C 442.102,330.82 438.768,330.487 435.5,329.5C 435.709,328.914 436.043,328.414 436.5,328C 440.882,327.543 445.216,327.543 449.5,328C 448.267,326.333 446.933,324.833 445.5,323.5C 446.506,323.062 446.506,322.396 445.5,321.5C 445.219,317.696 445.552,313.696 446.5,309.5 Z"/></g>
<g><path style="opacity:1" fill="#9cc2e6" d="M 301.5,319.5 C 302.167,319.5 302.833,319.5 303.5,319.5C 303.5,344.833 303.5,370.167 303.5,395.5C 300.214,396.207 296.881,396.54 293.5,396.5C 284.983,396.826 276.65,396.493 268.5,395.5C 269.5,395.5 270.5,395.5 271.5,395.5C 271.5,370.833 271.5,346.167 271.5,321.5C 281.64,321.996 291.64,321.329 301.5,319.5 Z"/></g>
<g><path style="opacity:1" fill="#729ec7" d="M 329.5,297.5 C 331.403,297.796 333.07,298.463 334.5,299.5C 334.5,299.833 334.5,300.167 334.5,300.5C 334.167,300.5 333.833,300.5 333.5,300.5C 332.791,299.596 331.791,299.263 330.5,299.5C 330.5,330.5 330.5,361.5 330.5,392.5C 331.5,392.5 332.5,392.5 333.5,392.5C 332.817,394.176 331.483,394.843 329.5,394.5C 329.5,362.167 329.5,329.833 329.5,297.5 Z"/></g>
<g><path style="opacity:1" fill="#73a8d8" d="M 333.5,300.5 C 333.833,300.5 334.167,300.5 334.5,300.5C 334.5,332.167 334.5,363.833 334.5,395.5C 333.5,395.5 332.5,395.5 331.5,395.5C 330.508,395.672 329.842,395.338 329.5,394.5C 331.483,394.843 332.817,394.176 333.5,392.5C 333.5,361.833 333.5,331.167 333.5,300.5 Z"/></g>
<g><path style="opacity:0.239" fill="#d3e5f3" d="M 447.5,335.5 C 444.498,334.357 441.498,334.357 438.5,335.5C 441.519,337.012 444.186,339.012 446.5,341.5C 442.639,340.151 438.973,338.318 435.5,336C 438.724,333.523 442.39,332.857 446.5,334C 447.056,334.383 447.389,334.883 447.5,335.5 Z"/></g>
<g><path style="opacity:1" fill="#94b7d6" d="M 447.5,335.5 C 448.886,337.244 449.886,339.244 450.5,341.5C 450.333,342.167 450.167,342.833 450,343.5C 449.184,342.177 448.017,341.511 446.5,341.5C 444.186,339.012 441.519,337.012 438.5,335.5C 441.498,334.357 444.498,334.357 447.5,335.5 Z"/></g>
<g><path style="opacity:0.822" fill="#dbe6ed" d="M 469.5,339.5 C 469.611,338.883 469.944,338.383 470.5,338C 468.527,337.505 466.527,337.338 464.5,337.5C 464.611,336.883 464.944,336.383 465.5,336C 467.5,335.333 469.5,335.333 471.5,336C 472.84,338.149 472.173,339.316 469.5,339.5 Z"/></g>
<g><path style="opacity:1" fill="#a2bcd2" d="M 464.5,337.5 C 466.527,337.338 468.527,337.505 470.5,338C 469.944,338.383 469.611,338.883 469.5,339.5C 468.713,341.104 467.38,341.771 465.5,341.5C 463.956,341.703 462.622,342.37 461.5,343.5C 461.167,343.167 460.833,342.833 460.5,342.5C 461.857,340.814 463.19,339.148 464.5,337.5 Z"/></g>
<g><path style="opacity:1" fill="#fafdfd" d="M 215.5,342.5 C 215.833,342.5 216.167,342.5 216.5,342.5C 224.475,342.951 232.475,344.117 240.5,346C 239.944,346.383 239.611,346.883 239.5,347.5C 238.508,347.328 237.842,347.662 237.5,348.5C 227.866,349.392 218.199,349.725 208.5,349.5C 207.833,349.5 207.5,349.167 207.5,348.5C 207.649,347.448 207.483,346.448 207,345.5C 205.16,346.833 204.66,346.666 205.5,345C 208.952,344.115 212.286,343.282 215.5,342.5 Z"/></g>
<g><path style="opacity:0.355" fill="#dae8ef" d="M 460.5,320.5 C 460.369,321.239 460.536,321.906 461,322.5C 462.444,320.845 464.278,320.178 466.5,320.5C 466.67,321.822 466.337,322.989 465.5,324C 466.819,324.195 468.153,324.028 469.5,323.5C 469.047,324.458 468.381,325.292 467.5,326C 469.473,326.495 471.473,326.662 473.5,326.5C 471.708,327.309 469.708,327.809 467.5,328C 469.555,328.687 471.221,329.854 472.5,331.5C 469.68,332.694 466.847,332.694 464,331.5C 460.176,332.773 459.509,335.107 462,338.5C 462.671,337.748 463.504,337.414 464.5,337.5C 463.19,339.148 461.857,340.814 460.5,342.5C 460.833,342.833 461.167,343.167 461.5,343.5C 462.622,342.37 463.956,341.703 465.5,341.5C 464.5,342.833 463.5,344.167 462.5,345.5C 460.776,345.461 460.443,345.794 461.5,346.5C 460.998,348.085 459.998,348.585 458.5,348C 458.02,344.561 458.687,341.228 460.5,338C 460.028,335.027 459.195,335.193 458,338.5C 457.954,344.362 456.954,350.029 455,355.5C 454.667,354.833 454.333,354.167 454,353.5C 451.877,355.857 452.044,358.024 454.5,360C 453.129,362.319 452.462,364.819 452.5,367.5C 450.2,369.202 447.533,369.868 444.5,369.5C 445.609,368.71 446.942,368.21 448.5,368C 444.874,367.722 442.874,365.888 442.5,362.5C 445.249,361.915 447.916,361.915 450.5,362.5C 448.395,359.513 445.562,357.513 442,356.5C 441.833,356.167 441.667,355.833 441.5,355.5C 443.5,354.833 445.5,354.167 447.5,353.5C 446.398,352.824 445.398,352.158 444.5,351.5C 447.97,351.29 447.97,350.123 444.5,348C 443.5,347.833 442.5,347.667 441.5,347.5C 439.97,347.64 438.97,348.307 438.5,349.5C 437.596,348.791 437.263,347.791 437.5,346.5C 441.765,346.238 445.765,345.738 449.5,345C 448.29,343.961 447.29,342.794 446.5,341.5C 448.017,341.511 449.184,342.177 450,343.5C 450.167,342.833 450.333,342.167 450.5,341.5C 449.886,339.244 448.886,337.244 447.5,335.5C 450.7,337.521 452.534,340.521 453,344.5C 453.45,340.812 453.283,337.146 452.5,333.5C 452.987,332.527 453.487,331.527 454,330.5C 454.333,332.167 454.667,333.833 455,335.5C 455.419,331.148 456.086,330.815 457,334.5C 458.094,332.922 458.928,331.255 459.5,329.5C 459.232,327.901 459.566,326.568 460.5,325.5C 459.699,323.207 459.032,323.54 458.5,326.5C 457.71,327.609 457.21,328.942 457,330.5C 456.002,325.857 455.668,321.19 456,316.5C 456.667,315.833 457.333,315.167 458,314.5C 458.333,316.5 458.667,318.5 459,320.5C 459.779,317.903 460.279,317.903 460.5,320.5 Z M 460.5,325.5 C 459.566,326.568 459.232,327.901 459.5,329.5C 458.596,328.791 458.263,327.791 458.5,326.5C 459.032,323.54 459.699,323.207 460.5,325.5 Z"/></g>
<g><path style="opacity:0.953" fill="#a6b7c4" d="M 460.5,325.5 C 461.429,324.064 462.595,322.731 464,321.5C 464.449,324.094 463.449,326.094 461,327.5C 460.536,326.906 460.369,326.239 460.5,325.5 Z"/></g>
<g><path style="opacity:0.039" fill="#e4f3f5" d="M 467.5,345.5 C 469.225,345.843 469.725,346.843 469,348.5C 467.989,349.337 466.822,349.67 465.5,349.5C 466.429,348.685 467.429,347.852 468.5,347C 467.944,346.617 467.611,346.117 467.5,345.5 Z"/></g>
<g><path style="opacity:0.988" fill="#b0cbdf" d="M 444.5,351.5 C 442.102,351.741 440.102,351.074 438.5,349.5C 438.97,348.307 439.97,347.64 441.5,347.5C 442.5,347.667 443.5,347.833 444.5,348C 447.97,350.123 447.97,351.29 444.5,351.5 Z"/></g>
<g><path style="opacity:0.348" fill="#e1eef7" d="M 115.5,353.5 C 114.5,353.5 113.5,353.5 112.5,353.5C 112.353,358.214 112.686,362.881 113.5,367.5C 112.778,367.082 112.278,366.416 112,365.5C 111.565,360.816 111.065,356.149 110.5,351.5C 112.698,351.12 114.365,351.787 115.5,353.5 Z"/></g>
<g><path style="opacity:0.098" fill="#e3eff6" d="M 464.5,349.5 C 463.391,350.29 462.058,350.79 460.5,351C 461.793,351.49 463.127,351.657 464.5,351.5C 464.371,353.216 464.038,354.883 463.5,356.5C 460.693,359.044 461.36,360.044 465.5,359.5C 463.259,360.621 460.925,361.787 458.5,363C 459.094,363.464 459.761,363.631 460.5,363.5C 460.25,364.922 459.417,365.922 458,366.5C 457.768,365.263 457.268,364.263 456.5,363.5C 456.862,359.797 458.529,356.797 461.5,354.5C 459.282,353.812 457.782,354.812 457,357.5C 456.059,355.011 456.559,353.011 458.5,351.5C 459.99,349.72 461.99,349.054 464.5,349.5 Z"/></g>
<g><path style="opacity:0.939" fill="#d4e4ef" d="M 125.5,343.5 C 129.259,349.656 129.259,355.823 125.5,362C 125.735,362.873 126.069,363.707 126.5,364.5C 125.77,367.109 125.27,369.776 125,372.5C 124.535,373.931 123.701,375.097 122.5,376C 125.817,376.498 129.15,376.665 132.5,376.5C 132.176,380.555 132.509,384.555 133.5,388.5C 135.409,389.348 137.409,389.682 139.5,389.5C 139.5,383.167 139.5,376.833 139.5,370.5C 139.833,370.5 140.167,370.5 140.5,370.5C 139.864,379.565 140.53,388.231 142.5,396.5C 144.5,397.167 146.5,397.833 148.5,398.5C 138.169,398.033 127.836,397.533 117.5,397C 113.713,396.84 110.046,396.174 106.5,395C 106.043,394.586 105.709,394.086 105.5,393.5C 106.383,392.452 107.05,391.285 107.5,390C 106.213,384.145 106.38,378.312 108,372.5C 108.333,372.833 108.667,373.167 109,373.5C 111.013,371.752 113.18,370.418 115.5,369.5C 118.82,371.338 120.487,370.338 120.5,366.5C 118.574,362.307 116.907,357.973 115.5,353.5C 116.794,354.29 117.961,355.29 119,356.5C 116.349,349.742 117.349,343.409 122,337.5C 123.011,336.663 124.178,336.33 125.5,336.5C 125.5,338.833 125.5,341.167 125.5,343.5 Z"/></g>
<g><path style="opacity:1" fill="#a8cded" d="M 125.5,343.5 C 125.846,346.885 126.512,350.218 127.5,353.5C 126.954,355.135 126.62,356.801 126.5,358.5C 125.5,358.5 124.5,358.5 123.5,358.5C 122.928,353.83 122.261,349.163 121.5,344.5C 121.622,342.209 122.455,340.209 124,338.5C 124.198,340.382 124.698,342.048 125.5,343.5 Z"/></g>
<g><path style="opacity:0.271" fill="#b8cfdd" d="M 461.5,346.5 C 462.167,346.5 462.5,346.167 462.5,345.5C 464.167,345.5 465.833,345.5 467.5,345.5C 467.611,346.117 467.944,346.617 468.5,347C 467.429,347.852 466.429,348.685 465.5,349.5C 465.167,349.5 464.833,349.5 464.5,349.5C 461.99,349.054 459.99,349.72 458.5,351.5C 456.559,353.011 456.059,355.011 457,357.5C 457.782,354.812 459.282,353.812 461.5,354.5C 458.529,356.797 456.862,359.797 456.5,363.5C 455.909,364.151 455.243,364.818 454.5,365.5C 455.737,366.281 456.737,367.281 457.5,368.5C 457.167,368.833 456.833,369.167 456.5,369.5C 455.184,366.972 454.017,366.972 453,369.5C 452.536,368.906 452.369,368.239 452.5,367.5C 452.462,364.819 453.129,362.319 454.5,360C 452.044,358.024 451.877,355.857 454,353.5C 454.333,354.167 454.667,354.833 455,355.5C 456.954,350.029 457.954,344.362 458,338.5C 459.195,335.193 460.028,335.027 460.5,338C 458.687,341.228 458.02,344.561 458.5,348C 459.998,348.585 460.998,348.085 461.5,346.5 Z"/></g>
<g><path style="opacity:0.992" fill="#b8cbde" d="M 465.5,359.5 C 461.36,360.044 460.693,359.044 463.5,356.5C 465.339,355.248 467.172,355.248 469,356.5C 469.333,358.934 468.166,359.934 465.5,359.5 Z"/></g>
<g><path style="opacity:1" fill="#b6d4ed" d="M 115.5,353.5 C 116.907,357.973 118.574,362.307 120.5,366.5C 120.487,370.338 118.82,371.338 115.5,369.5C 114.5,369.167 113.833,368.5 113.5,367.5C 112.686,362.881 112.353,358.214 112.5,353.5C 113.5,353.5 114.5,353.5 115.5,353.5 Z"/></g>
<g><path style="opacity:0.004" fill="#fefffe" d="M 80.5,363.5 C 81.8333,364.167 81.8333,364.167 80.5,363.5 Z"/></g>
<g><path style="opacity:0.004" fill="#fefffe" d="M 32.5,365.5 C 33.8333,366.167 33.8333,366.167 32.5,365.5 Z"/></g>
<g><path style="opacity:1" fill="#eaf0f8" d="M 178.5,370.5 C 178.167,370.5 177.833,370.5 177.5,370.5C 176.078,370.709 174.745,371.209 173.5,372C 164.173,372.5 154.839,372.666 145.5,372.5C 144.07,371.463 142.403,370.796 140.5,370.5C 140.167,370.5 139.833,370.5 139.5,370.5C 139.574,368.589 140.574,367.422 142.5,367C 153.504,365.033 164.504,365.033 175.5,367C 177.426,367.422 178.426,368.589 178.5,370.5 Z"/></g>
<g><path style="opacity:0.502" fill="#d1e2f1" d="M 459.5,396.5 C 460.706,395.12 460.373,393.953 458.5,393C 464.089,388.205 463.756,383.872 457.5,380C 455.866,379.506 454.199,379.34 452.5,379.5C 452.286,377.856 452.62,376.356 453.5,375C 452.906,374.536 452.239,374.369 451.5,374.5C 450.566,373.432 450.232,372.099 450.5,370.5C 448.833,370.5 447.167,370.5 445.5,370.5C 445.5,374.167 445.5,377.833 445.5,381.5C 444.517,377.702 444.183,373.702 444.5,369.5C 447.533,369.868 450.2,369.202 452.5,367.5C 452.369,368.239 452.536,368.906 453,369.5C 454.017,366.972 455.184,366.972 456.5,369.5C 456.833,369.167 457.167,368.833 457.5,368.5C 456.737,367.281 455.737,366.281 454.5,365.5C 455.243,364.818 455.909,364.151 456.5,363.5C 457.268,364.263 457.768,365.263 458,366.5C 459.417,365.922 460.25,364.922 460.5,363.5C 468.109,362.647 468.443,364.147 461.5,368C 462.766,368.309 463.933,368.809 465,369.5C 465.825,376.616 465.325,383.616 463.5,390.5C 467.188,390.781 470.855,391.281 474.5,392C 475.646,394.557 474.646,395.89 471.5,396C 467.514,396.499 463.514,396.666 459.5,396.5 Z"/></g>
<g><path style="opacity:1" fill="#74a4ce" d="M 268.5,319.5 C 269.492,319.328 270.158,319.662 270.5,320.5C 271.167,320.5 271.5,320.833 271.5,321.5C 271.5,346.167 271.5,370.833 271.5,395.5C 270.5,395.5 269.5,395.5 268.5,395.5C 267.168,383.185 266.501,370.518 266.5,357.5C 266.501,344.482 267.168,331.815 268.5,319.5 Z"/></g>
<g><path style="opacity:1" fill="#659dcf" d="M 270.5,320.5 C 270.5,345.167 270.5,369.833 270.5,394.5C 269.5,394.5 268.5,394.5 267.5,394.5C 267.5,369.833 267.5,345.167 267.5,320.5C 268.5,320.5 269.5,320.5 270.5,320.5 Z"/></g>
<g><path style="opacity:0.004" fill="#fefffe" d="M 101.5,376.5 C 102.833,377.167 102.833,377.167 101.5,376.5 Z"/></g>
<g><path style="opacity:1" fill="#8cb6de" d="M 451.5,374.5 C 450.422,377.43 449.922,380.43 450,383.5C 452.732,386.722 455.232,390.055 457.5,393.5C 454.914,394.48 452.247,394.813 449.5,394.5C 448.883,394.389 448.383,394.056 448,393.5C 447.465,389.962 446.632,386.628 445.5,383.5C 445.5,382.833 445.5,382.167 445.5,381.5C 445.5,377.833 445.5,374.167 445.5,370.5C 447.167,370.5 448.833,370.5 450.5,370.5C 450.232,372.099 450.566,373.432 451.5,374.5 Z"/></g>
<g><path style="opacity:1" fill="#a5cced" d="M 127.5,392.5 C 117.219,393.552 112.552,388.886 113.5,378.5C 119.435,377.954 125.435,377.954 131.5,378.5C 130.873,383.141 130.54,387.807 130.5,392.5C 129.5,392.5 128.5,392.5 127.5,392.5 Z"/></g>
<g><path style="opacity:0.263" fill="#bad5f0" d="M 267.5,318.5 C 268.167,318.5 268.5,318.833 268.5,319.5C 267.168,331.815 266.501,344.482 266.5,357.5C 266.501,370.518 267.168,383.185 268.5,395.5C 276.65,396.493 284.983,396.826 293.5,396.5C 285.01,397.657 276.343,397.824 267.5,397C 265.623,393.506 264.956,389.673 265.5,385.5C 265.5,380.167 265.5,374.833 265.5,369.5C 265.5,354.5 265.5,339.5 265.5,324.5C 265.5,324.167 265.5,323.833 265.5,323.5C 265.077,321.219 265.744,319.552 267.5,318.5 Z"/></g>
<g><path style="opacity:0.998" fill="#acceea" d="M 451.5,374.5 C 452.239,374.369 452.906,374.536 453.5,375C 452.62,376.356 452.286,377.856 452.5,379.5C 454.199,379.34 455.866,379.506 457.5,380C 463.756,383.872 464.089,388.205 458.5,393C 460.373,393.953 460.706,395.12 459.5,396.5C 456.167,396.5 452.833,396.5 449.5,396.5C 449.5,395.833 449.5,395.167 449.5,394.5C 452.247,394.813 454.914,394.48 457.5,393.5C 455.232,390.055 452.732,386.722 450,383.5C 449.922,380.43 450.422,377.43 451.5,374.5 Z"/></g>
<g><path style="opacity:0.999" fill="#cfdeee" d="M 419.5,243.5 C 419.833,243.5 420.167,243.5 420.5,243.5C 423.5,244.167 426.5,244.833 429.5,245.5C 429.5,252.5 429.5,259.5 429.5,266.5C 429.5,276.5 429.5,286.5 429.5,296.5C 429.5,309.167 429.5,321.833 429.5,334.5C 429.333,352.503 429.5,370.503 430,388.5C 434.748,389.635 439.581,389.802 444.5,389C 445.406,387.301 445.739,385.467 445.5,383.5C 446.632,386.628 447.465,389.962 448,393.5C 448.383,394.056 448.883,394.389 449.5,394.5C 449.5,395.167 449.5,395.833 449.5,396.5C 430.196,398.124 410.863,398.624 391.5,398C 389.989,396.385 388.656,396.385 387.5,398C 379.833,398.333 372.167,398.667 364.5,399C 365.056,399.383 365.389,399.883 365.5,400.5C 364.833,400.5 364.167,400.5 363.5,400.5C 317.335,399.667 271.002,399.167 224.5,399C 217.476,398.831 210.476,398.331 203.5,397.5C 202.226,395.15 200.893,395.317 199.5,398C 194.452,399.336 190.285,398.169 187,394.5C 183.349,396.186 179.516,397.186 175.5,397.5C 177.377,388.694 178.044,379.694 177.5,370.5C 177.833,370.5 178.167,370.5 178.5,370.5C 178.192,376.425 178.525,382.259 179.5,388C 187.189,388.647 194.856,388.48 202.5,387.5C 202.5,378.833 202.5,370.167 202.5,361.5C 202.5,358.167 202.5,354.833 202.5,351.5C 202.5,350.167 202.5,348.833 202.5,347.5C 203.791,347.263 204.791,347.596 205.5,348.5C 204.169,355.97 203.502,363.804 203.5,372C 203.502,380.196 204.169,388.03 205.5,395.5C 210.59,396.965 215.923,397.632 221.5,397.5C 227.82,397.894 233.82,396.894 239.5,394.5C 240.499,379.181 240.833,363.848 240.5,348.5C 239.5,348.5 238.5,348.5 237.5,348.5C 237.842,347.662 238.508,347.328 239.5,347.5C 241.459,353.75 242.126,360.416 241.5,367.5C 241.5,367.833 241.5,368.167 241.5,368.5C 241.5,374.5 241.5,380.5 241.5,386.5C 249.586,386.801 257.586,386.467 265.5,385.5C 264.956,389.673 265.623,393.506 267.5,397C 276.343,397.824 285.01,397.657 293.5,396.5C 296.881,396.54 300.214,396.207 303.5,395.5C 303.5,370.167 303.5,344.833 303.5,319.5C 304.497,335.992 304.83,352.658 304.5,369.5C 304.5,375.167 304.5,380.833 304.5,386.5C 312.5,386.5 320.5,386.5 328.5,386.5C 325.542,389.972 324.876,393.972 326.5,398.5C 338.718,398.599 351.051,398.433 363.5,398C 364.5,397.5 365.5,397 366.5,396.5C 367.48,393.914 367.813,391.247 367.5,388.5C 373.167,388.5 378.833,388.5 384.5,388.5C 386.5,388.5 388.5,388.5 390.5,388.5C 390.5,376.5 390.5,364.5 390.5,352.5C 390.5,352.167 390.5,351.833 390.5,351.5C 390.833,351.5 391.167,351.5 391.5,351.5C 391.184,366.245 391.517,380.912 392.5,395.5C 404.125,398.271 415.792,397.938 427.5,394.5C 428.5,344.838 428.833,295.171 428.5,245.5C 424.988,246.055 421.988,245.388 419.5,243.5 Z M 241.5,368.5 C 249.111,369.434 256.778,369.767 264.5,369.5C 264.833,369.5 265.167,369.5 265.5,369.5C 265.5,374.833 265.5,380.167 265.5,385.5C 257.586,386.467 249.586,386.801 241.5,386.5C 241.5,380.5 241.5,374.5 241.5,368.5 Z M 328.5,366.5 C 328.5,373.167 328.5,379.833 328.5,386.5C 320.5,386.5 312.5,386.5 304.5,386.5C 304.5,380.833 304.5,375.167 304.5,369.5C 312.518,368.646 320.518,367.646 328.5,366.5 Z M 389.5,352.5 C 389.833,352.5 390.167,352.5 390.5,352.5C 390.5,364.5 390.5,376.5 390.5,388.5C 388.5,388.5 386.5,388.5 384.5,388.5C 379.36,387.512 374.026,387.179 368.5,387.5C 368.5,378.167 368.5,368.833 368.5,359.5C 375.81,357.784 382.81,355.451 389.5,352.5 Z"/></g>
<g><path style="opacity:1" fill="#6b9fce" d="M 205.5,348.5 C 206.167,348.5 206.833,348.5 207.5,348.5C 207.5,349.167 207.833,349.5 208.5,349.5C 208.5,364.833 208.5,380.167 208.5,395.5C 207.5,395.5 206.5,395.5 205.5,395.5C 204.169,388.03 203.502,380.196 203.5,372C 203.502,363.804 204.169,355.97 205.5,348.5 Z"/></g>
<g><path style="opacity:1" fill="#9dc2e6" d="M 237.5,348.5 C 238.5,348.5 239.5,348.5 240.5,348.5C 240.833,363.848 240.499,379.181 239.5,394.5C 233.82,396.894 227.82,397.894 221.5,397.5C 215.923,397.632 210.59,396.965 205.5,395.5C 206.5,395.5 207.5,395.5 208.5,395.5C 208.5,380.167 208.5,364.833 208.5,349.5C 218.199,349.725 227.866,349.392 237.5,348.5 Z"/></g>
<g><path style="opacity:1" fill="#eaeef8" d="M 390.5,324.5 C 390.5,333.5 390.5,342.5 390.5,351.5C 390.5,351.833 390.5,352.167 390.5,352.5C 390.167,352.5 389.833,352.5 389.5,352.5C 383.894,351.593 378.227,351.26 372.5,351.5C 372.5,342.5 372.5,333.5 372.5,324.5C 378.5,324.5 384.5,324.5 390.5,324.5 Z"/></g>
<g><path style="opacity:1" fill="#659cd3" d="M 333.5,300.5 C 333.5,331.167 333.5,361.833 333.5,392.5C 332.5,392.5 331.5,392.5 330.5,392.5C 330.5,361.5 330.5,330.5 330.5,299.5C 331.791,299.263 332.791,299.596 333.5,300.5 Z"/></g>
<g><path style="opacity:1" fill="#96b9dd" d="M 113.5,378.5 C 112.552,388.886 117.219,393.552 127.5,392.5C 113.579,398.252 107.245,393.585 108.5,378.5C 110.167,378.5 111.833,378.5 113.5,378.5 Z"/></g>
<g><path style="opacity:1" fill="#6fa0cd" d="M 140.5,370.5 C 142.403,370.796 144.07,371.463 145.5,372.5C 145.5,380.5 145.5,388.5 145.5,396.5C 144.5,396.5 143.5,396.5 142.5,396.5C 140.53,388.231 139.864,379.565 140.5,370.5 Z"/></g>
<g><path style="opacity:1" fill="#9dc2e6" d="M 177.5,370.5 C 178.044,379.694 177.377,388.694 175.5,397.5C 167.208,398.407 158.875,398.74 150.5,398.5C 149.833,398.5 149.167,398.5 148.5,398.5C 146.5,397.833 144.5,397.167 142.5,396.5C 143.5,396.5 144.5,396.5 145.5,396.5C 145.5,388.5 145.5,380.5 145.5,372.5C 154.839,372.666 164.173,372.5 173.5,372C 174.745,371.209 176.078,370.709 177.5,370.5 Z"/></g>
<g><path style="opacity:0.004" fill="#fefffe" d="M 524.5,397.5 C 525.833,398.167 525.833,398.167 524.5,397.5 Z"/></g>
<g><path style="opacity:0.796" fill="#e2ebf1" d="M 449.5,396.5 C 452.833,396.5 456.167,396.5 459.5,396.5C 448.363,397.915 437.03,398.749 425.5,399C 405.495,399.409 385.495,399.909 365.5,400.5C 365.389,399.883 365.056,399.383 364.5,399C 372.167,398.667 379.833,398.333 387.5,398C 388.656,396.385 389.989,396.385 391.5,398C 410.863,398.624 430.196,398.124 449.5,396.5 Z"/></g>
<g><path style="opacity:0.314" fill="#e1e9f0" d="M 363.5,400.5 C 292.415,401.325 221.415,400.659 150.5,398.5C 158.875,398.74 167.208,398.407 175.5,397.5C 179.516,397.186 183.349,396.186 187,394.5C 190.285,398.169 194.452,399.336 199.5,398C 200.893,395.317 202.226,395.15 203.5,397.5C 210.476,398.331 217.476,398.831 224.5,399C 271.002,399.167 317.335,399.667 363.5,400.5 Z"/></g>
<g><path style="opacity:0.004" fill="#fefffe" d="M 23.5,402.5 C 24.8333,403.167 24.8333,403.167 23.5,402.5 Z"/></g>
<g><path style="opacity:0.004" fill="#fefffe" d="M 416.5,402.5 C 417.833,403.167 417.833,403.167 416.5,402.5 Z"/></g>
<g><path style="opacity:0.004" fill="#fefffe" d="M 401.5,405.5 C 402.833,406.167 402.833,406.167 401.5,405.5 Z"/></g>
<g><path style="opacity:0.004" fill="#fefffe" d="M 467.5,409.5 C 468.833,410.167 468.833,410.167 467.5,409.5 Z"/></g>
<g><path style="opacity:0.004" fill="#fefffe" d="M 53.5,413.5 C 54.8333,414.167 54.8333,414.167 53.5,413.5 Z"/></g>
<g><path style="opacity:0.004" fill="#fefffe" d="M 407.5,418.5 C 408.833,419.167 408.833,419.167 407.5,418.5 Z"/></g>
<g><path style="opacity:0.004" fill="#fefffe" d="M 203.5,422.5 C 204.833,423.167 204.833,423.167 203.5,422.5 Z"/></g>
<g><path style="opacity:0.004" fill="#fefffe" d="M 371.5,426.5 C 372.833,427.167 372.833,427.167 371.5,426.5 Z"/></g>
<g><path style="opacity:0.004" fill="#fefffe" d="M 86.5,432.5 C 87.8333,433.167 87.8333,433.167 86.5,432.5 Z"/></g>
<g><path style="opacity:0.004" fill="#fefffe" d="M 389.5,436.5 C 390.833,437.167 390.833,437.167 389.5,436.5 Z"/></g>
<g><path style="opacity:0.004" fill="#fefffe" d="M 101.5,438.5 C 102.833,439.167 102.833,439.167 101.5,438.5 Z"/></g>
<g><path style="opacity:0.004" fill="#fefffe" d="M 185.5,440.5 C 186.833,441.167 186.833,441.167 185.5,440.5 Z"/></g>
<g><path style="opacity:0.004" fill="#fefffe" d="M 425.5,440.5 C 426.833,441.167 426.833,441.167 425.5,440.5 Z"/></g>
<g><path style="opacity:0.004" fill="#fefffe" d="M 17.5,441.5 C 18.8333,442.167 18.8333,442.167 17.5,441.5 Z"/></g>
<g><path style="opacity:0.004" fill="#fefffe" d="M 224.5,443.5 C 225.833,444.167 225.833,444.167 224.5,443.5 Z"/></g>
<g><path style="opacity:0.004" fill="#fefffe" d="M 419.5,450.5 C 420.833,451.167 420.833,451.167 419.5,450.5 Z"/></g>
<g><path style="opacity:0.004" fill="#fefffe" d="M 173.5,452.5 C 174.833,453.167 174.833,453.167 173.5,452.5 Z"/></g>
</svg>
