<!DOCTYPE svg PUBLIC "-//W3C//DTD SVG 1.1//EN" "http://www.w3.org/Graphics/SVG/1.1/DTD/svg11.dtd">
<svg xmlns="http://www.w3.org/2000/svg" viewBox="0 0 384 384">
<path fill="#fbfbfb" stroke="#fbfbfb" d="M83.164 1.106C46.175 7.361 14.014 36.757 2.863 74.5L.5 82.5v171l86.623.255c76.128.225 86.774.074 87.872-1.25 1.989-2.396 19.124-2.136 21.35.324 2.29 2.53 2.406 19.303.146 21.178-1.316 1.093-1.475 8.136-1.25 55.373l.259 54.12 2.756.317c1.797.207 2.965-.228 3.357-1.25.486-1.267 2.379-1.567 9.887-1.567 7.508 0 9.401.3 9.887 1.567.392 1.022 1.56 1.457 3.357 1.25l2.756-.317.259-54.12c.225-47.237.066-54.28-1.25-55.373-1.149-.953-1.509-3.49-1.509-10.629V254h78.8c59.956 0 79.087-.287 80-1.2.916-.916 1.172-20.967 1.082-84.75-.065-45.952-.424-82.2-.797-80.55-.595 2.633-.765 2.302-1.386-2.712C378.196 48.435 347.933 14.785 309 2.841L301.5.54 195 .372C135.39.278 86.151.601 83.164 1.106M228 62v16h32.031c27.55 0 32.112.21 32.607 1.5.455 1.186 2.542 1.5 9.969 1.5H312V46h-84v16M.478 169.5c0 46.2.122 64.954.272 41.675.149-23.279.149-61.079 0-84C.6 104.254.478 123.3.478 169.5M312.5 137.945c-8.463 3.464-7.359 15.609 1.597 17.576 5.162 1.134 10.903-3.957 10.903-9.668 0-4.952-7.747-9.853-12.5-7.908" fill-rule="evenodd"/>
<path fill="#abb3bb" stroke="#abb3bb" d="M82.909 1.539C45.134 8.455 13.476 37.745 2.733 75.716c-2.178 7.7-2.205 8.694-2.5 91.642-.222 62.331-.002 84.215.857 85.25.97 1.17 14.879 1.392 87.024 1.392 84.786 0 85.885-.025 87.118-2 2.093-3.352 17.727-2.95 21.223.545 3.501 3.502 3.896 19.13.536 21.228-2.98 1.862-2.669 107.788.322 109.618 1.47.899 2.162.684 3.66-1.141 2.784-3.39 18.27-3.39 21.054 0 1.498 1.825 2.19 2.04 3.66 1.141 2.991-1.83 3.302-107.756.322-109.618-1.777-1.109-2.009-2.324-2.009-10.514V254h78.845c75.114 0 78.923-.087 80.5-1.829 1.514-1.672 1.645-8.822 1.537-83.75-.065-45.056-.462-80.571-.882-78.921l-.763 3-.126-3.5c-1.093-30.526-29.095-67.816-60.854-81.037C303.152.01 312.169.55 195 .338 109.47.183 89.122.401 82.909 1.539M228 62v16h31.933c31.054 0 31.95.055 32.567 2 .576 1.814 1.513 2 10.067 2H312V46h-84v16M.477 170c0 45.375.123 63.938.273 41.25.15-22.687.15-59.812 0-82.5C.6 106.063.477 124.625.477 170m174.771-74.025c-1.201 1.923-2.702 1.983-56.328 2.25l-55.094.275-2.413 2.806c-1.327 1.543-2.413 3.238-2.413 3.766 0 .788 67.039 51.437 73.056 55.195 1.545.965 4.71-.792 21.067-11.693 19.807-13.2 21.902-14.023 22.672-8.911.327 2.174-39.16 29.371-42.541 29.3-.965-.02-17.954-12.128-37.754-26.906l-36-26.869-.277 48.656c-.308 54.068-.427 52.451 4.054 55.183 3.098 1.889 5.303 1.966 56.965 1.969 52.656.004 53.766.044 54.99 2.004 1.103 1.766 2.332 2 10.509 2H195V94h-9.259c-8.138 0-9.409.239-10.493 1.975m135.862 42.421c-8.827 4.892-4.845 17.604 5.514 17.604 1.463 0 3.763-1.233 5.453-2.923 7.749-7.749-1.394-19.988-10.967-14.681M94.079 187.532c-20.18 13.217-19.477 12.637-18.611 15.367 1.295 4.081 5.274 2.483 23.749-9.54 16.287-10.599 17.861-11.875 17.586-14.25-.587-5.056-4.177-3.726-22.724 8.423m62.588-10.865c-3.265 3.265 13.057 13.691 17.946 11.464 4.363-1.989 3.003-3.814-6.338-8.504-7.008-3.518-10.229-4.34-11.608-2.96" fill-rule="evenodd"/>
<path fill="#fb7474" stroke="#fb7474" d="M89.5.656C47.339 6.166 14.577 34.917 2.706 76.825.564 84.385.527 85.752.233 167.858c-.222 61.96-.002 83.715.857 84.75 1.856 2.237 171.097 2.062 173.339-.179 5.449-5.45 5.776-5.429-84.162-5.429H6.933l.306-81.75c.337-90.249-.078-84.168 6.886-100.895C28.418 30.02 63.273 7.015 101 7.015c42.366 0 80.384 28.123 91.232 67.485 2.171 7.878 2.213 9.295 2.736 92.787.464 73.887.725 84.909 2.032 85.735.916.579 37.15.953 93.095.963 87.477.014 91.669-.067 93.25-1.814 1.514-1.672 1.644-8.776 1.523-83.25-.072-44.781-.463-79.846-.868-77.921l-.737 3.5-.131-4.122c-.217-6.795-4.727-22.72-9.042-31.927C360.901 30.305 337.001 10.892 305 2.33 299.044.737 289.874.577 195.5.428 138.85.338 91.15.441 89.5.656M228 61.5V78h31.492c30.408 0 31.534.069 32.74 2 1.103 1.766 2.332 2 10.509 2H312V45h-84v16.5M.477 170.5c0 45.1.123 63.404.273 40.675.15-22.728.15-59.628 0-82C.6 106.804.477 125.4.477 170.5m59.445-77.226c-1.856 1.25-4.408 3.808-5.672 5.682l-2.297 3.409.274 57.745c.304 64.331-.188 59.843 7.158 65.328 3.892 2.907 114.126 3.283 115.948.396 3.017-4.782 2.42-4.834-56.032-4.834H64.846l-2.923-2.923L59 215.154v-50.077c0-27.542.2-50.077.445-50.077s16.678 12.15 36.518 27 36.644 27 37.341 27c1.552 0 39.692-25.008 41.463-27.188 1.406-1.729.78-4.388-1.213-5.153-.711-.273-9.975 5.291-20.588 12.364-18.03 12.016-19.433 12.764-21.381 11.409-17.704-12.316-72.527-54.324-72.552-55.593-.018-.914 1.352-2.826 3.044-4.25L65.153 98h53.733c57.607 0 58.185-.049 56.669-4.826l-.69-2.174H63.296l-3.374 2.274m249.001 46.649C302.911 145.935 307.028 156 315.5 156c5.081 0 9.5-4.419 9.5-9.5s-4.419-9.5-9.5-9.5c-2.705 0-4.413.759-6.577 2.923M94.281 187.771c-18.484 11.9-20.21 13.405-18.176 15.856 2.129 2.565 4.745 1.384 22.578-10.192 17.729-11.508 19.575-13.215 17.277-15.983-1.914-2.306-2.501-2.027-21.679 10.319m62.755-10.315c-1.793 2.161-.689 3.193 8.175 7.65 7.168 3.604 8.225 3.886 9.561 2.551 2.401-2.401.796-4.346-6.702-8.122-7.794-3.925-9.271-4.203-11.034-2.079m39.714 96.624c-2.561 1.492-2.722 106.869-.166 108.99 1.149.953 2.041 1.026 3.25.263 1.515-.956 1.689-5.869 1.925-54.329.281-57.783.261-57.994-5.009-54.924m25.364.283c-2.062 2.484-1.046 107.647 1.052 108.97 1.209.763 2.101.69 3.25-.263 2.077-1.724 2.448-106.806.384-108.87-1.579-1.579-3.29-1.519-4.686.163" fill-rule="evenodd"/>
<path fill="#57565e" stroke="#57565e" d="M89.678 1.068C48.582 5.536 14.139 35.667 2.879 77L.564 85.5.237 167c-.18 44.825-.073 82.512.237 83.75l.564 2.25H175v-2.393c0-1.316-.712-2.666-1.582-3-.87-.334-38.895-.607-84.5-.607H6v-76.369c0-81.714.19-85.405 5.148-99.903 8.466-24.759 28.708-46.522 52.81-56.778 53.67-22.839 116.885 8.621 129.708 64.55 1.698 7.407 1.836 14.133 1.864 90.697.017 45.483.386 83.052.82 83.487 1.766 1.765 185.97.255 187.333-1.536.982-1.292 1.23-18.83 1.143-81.148-.06-43.725-.432-77.7-.826-75.5l-.716 4-.142-4.792c-1.233-41.626-35.346-80.869-79.412-91.354C295.655.433 106-.707 89.678 1.068m56.186 8.968c26.15 12.098 45.292 35.025 53.404 63.964 2.044 7.292 2.112 9.793 2.47 90.25l.368 82.75h174.971l-.318-81.75-.318-81.75-2.275-7.433c-10.853-35.464-37.293-60.129-72.481-67.617-5.632-1.198-20.303-1.442-84.5-1.404l-77.685.046 6.364 2.944M222.2 40.2c-1.475 1.475-1.677 40.496-.222 42.8.805 1.275 5.95 1.543 34.242 1.787 36.203.313 38.361.035 35.871-4.616C290.936 78.013 290.745 78 258.94 78h-31.99l.275-16.25.275-16.25 42.911-.261 42.911-.261-.659 27.761c-.363 15.269-.66 34.569-.661 42.89L312 130.757l-2.883 1.194c-16.608 6.88-9.188 33.594 8.532 30.718 15.462-2.509 19.387-22.598 5.821-29.794l-4.47-2.372V85.952c0-33.318-.303-44.855-1.2-45.752-1.728-1.728-93.872-1.728-95.6 0M60.979 93.242c-3.285 1.656-5.086 3.458-6.755 6.758l-2.276 4.5.276 56c.309 62.624-.078 59.32 7.546 64.546l3.581 2.454 53.575.294c58.421.32 58.074.339 58.074-3.28v-2.449l-54.75-.282c-60.814-.314-58.763-.08-61.175-6.998C57.989 211.669 57.446 114 58.514 114c.283 0 16.596 12.062 36.25 26.804 41.937 31.454 37.643 28.579 40.465 27.094 10.378-5.461 39.771-26.074 39.771-27.89 0-4.555-3.188-3.201-22.045 9.366C142.534 156.318 133.779 162 133.498 162c-.281 0-17.37-12.646-37.977-28.103l-37.466-28.104 1.483-2.867C62.38 97.431 61.277 97.539 120 97l54.5-.5v-5l-54.521-.258-54.521-.259-4.479 2.259M.477 171.5c0 44 .123 61.854.273 39.676.15-22.179.15-58.179 0-80C.599 109.354.476 127.5.477 171.5m312.807-34.729c-1.219.197-3.356 1.714-4.75 3.371-7.365 8.752 3.225 20.648 12.798 14.376 8.726-5.717 2.495-19.459-8.048-17.747M94.5 187.892c-15.133 9.874-18 12.13-18 14.162 0 4.528 3.358 3.264 20.298-7.636 19.848-12.771 21.085-13.793 19.581-16.182-1.911-3.035-3.51-2.329-21.879 9.656m62.588-10.498c-1.607 1.936.035 3.359 8.651 7.501 12.516 6.017 14.695 1.357 2.283-4.884-8.918-4.484-9.307-4.577-10.934-2.617M196 328.393c0 57.651.062 58.402 4.471 53.993 1.57-1.57 2.444-102.838.922-106.804-.334-.87-1.684-1.582-3-1.582H196v54.393m25.483-52.143c-1.355 5.495-.014 105.805 1.426 106.694 4.074 2.517 4.091 2.288 4.091-54.551V274h-2.481c-1.742 0-2.646.67-3.036 2.25" fill-rule="evenodd"/>
</svg>