<?xml version="1.0" encoding="UTF-8"?>
<!DOCTYPE svg PUBLIC "-//W3C//DTD SVG 1.1//EN" "http://www.w3.org/Graphics/SVG/1.1/DTD/svg11.dtd">
<svg xmlns="http://www.w3.org/2000/svg" version="1.1" width="368px" height="225px" style="shape-rendering:geometricPrecision; text-rendering:geometricPrecision; image-rendering:optimizeQuality; fill-rule:evenodd; clip-rule:evenodd" xmlns:xlink="http://www.w3.org/1999/xlink">
<g><path style="opacity:0.004" fill="#fefffe" d="M 72.5,3.5 C 73.8333,4.16667 73.8333,4.16667 72.5,3.5 Z"/></g>
<g><path style="opacity:0.255" fill="#be1010" d="M 322.5,10.5 C 233.833,10.3333 145.166,10.5 56.5,11C 54.0066,12.2691 51.3399,13.1024 48.5,13.5C 50.1209,11.8828 52.1209,10.7162 54.5,10C 144.001,9.1676 233.334,9.33427 322.5,10.5 Z"/></g>
<g><path style="opacity:1" fill="#ee0101" d="M 322.5,10.5 C 328.958,11.9651 333.625,15.6318 336.5,21.5C 337.157,80.6474 336.491,139.647 334.5,198.5C 334.709,199.086 335.043,199.586 335.5,200C 333.561,200.908 332.561,202.408 332.5,204.5C 331.5,204.5 330.5,204.5 329.5,204.5C 329.5,205.833 329.5,207.167 329.5,208.5C 329.167,208.5 328.833,208.5 328.5,208.5C 237.57,210.475 146.57,211.141 55.5,210.5C 55.1667,210.5 54.8333,210.5 54.5,210.5C 50.934,208.397 47.6006,205.897 44.5,203C 43.1341,201.4 42.1341,199.567 41.5,197.5C 40.3334,139.836 40.1667,82.1696 41,24.5C 42.5184,20.151 45.0184,16.4844 48.5,13.5C 51.3399,13.1024 54.0066,12.2691 56.5,11C 145.166,10.5 233.833,10.3333 322.5,10.5 Z M 333.5,64.5 C 333.5,104.167 333.5,143.833 333.5,183.5C 237.167,183.5 140.833,183.5 44.5,183.5C 44.5,144.5 44.5,105.5 44.5,66.5C 140.494,64.5023 236.828,63.8357 333.5,64.5 Z M 141.5,115.5 C 143.574,118.796 144.907,122.463 145.5,126.5C 143.157,127.725 141.323,127.059 140,124.5C 138.01,121.126 138.51,118.126 141.5,115.5 Z M 183.5,120.5 C 187.744,126.557 187.411,132.557 182.5,138.5C 180.503,138.014 179.169,136.847 178.5,135C 179.679,129.962 181.346,125.129 183.5,120.5 Z M 223.5,120.5 C 224.117,120.611 224.617,120.944 225,121.5C 227.087,127.729 226.087,133.396 222,138.5C 219.952,137.902 218.785,136.569 218.5,134.5C 219.616,129.608 221.283,124.941 223.5,120.5 Z M 137.5,132.5 C 145.339,133.466 146.673,137.133 141.5,143.5C 139.997,142.41 139.664,141.243 140.5,140C 138.523,137.957 137.523,135.457 137.5,132.5 Z"/></g>
<g><path style="opacity:0.004" fill="#fefffe" d="M 347.5,11.5 C 348.833,12.1667 348.833,12.1667 347.5,11.5 Z"/></g>
<g><path style="opacity:0.004" fill="#fefffe" d="M 21.5,15.5 C 22.8333,16.1667 22.8333,16.1667 21.5,15.5 Z"/></g>
<g><path style="opacity:0.004" fill="#fefffe" d="M 7.5,22.5 C 8.83333,23.1667 8.83333,23.1667 7.5,22.5 Z"/></g>
<g><path style="opacity:1" fill="#ca100f" d="M 333.5,64.5 C 236.828,63.8357 140.494,64.5023 44.5,66.5C 43.5015,105.33 43.1681,144.33 43.5,183.5C 42.3355,144.335 42.1688,105.002 43,65.5C 43.3742,64.5838 43.8742,63.7504 44.5,63C 92.6667,62.8333 140.833,62.6667 189,62.5C 237.505,62.5001 285.671,63.1667 333.5,64.5 Z"/></g>
<g><path style="opacity:0.004" fill="#fefffe" d="M 346.5,67.5 C 347.833,68.1667 347.833,68.1667 346.5,67.5 Z"/></g>
<g><path style="opacity:0.004" fill="#fefffe" d="M 26.5,71.5 C 27.8333,72.1667 27.8333,72.1667 26.5,71.5 Z"/></g>
<g><path style="opacity:0.474" fill="#bd0b0a" d="M 48.5,13.5 C 45.0184,16.4844 42.5184,20.151 41,24.5C 40.1667,82.1696 40.3334,139.836 41.5,197.5C 42.1341,199.567 43.1341,201.4 44.5,203C 47.6006,205.897 50.934,208.397 54.5,210.5C 50.5617,210.365 47.2283,208.865 44.5,206C 42.2879,203.079 40.4545,199.912 39,196.5C 38.3333,139.167 38.3333,81.8333 39,24.5C 40.7959,19.5272 43.9626,15.8605 48.5,13.5 Z"/></g>
<g><path style="opacity:0.793" fill="#010101" d="M 110.5,90.5 C 113.85,90.335 117.183,90.5017 120.5,91C 121.357,91.6891 122.023,92.5224 122.5,93.5C 120.975,99.037 120.309,104.704 120.5,110.5C 120.872,122.053 121.872,133.553 123.5,145C 123.441,146.436 123.108,147.769 122.5,149C 118.428,149.956 114.595,149.456 111,147.5C 106.969,130.008 105.969,112.341 108,94.5C 108.48,92.867 109.313,91.5336 110.5,90.5 Z"/></g>
<g><path style="opacity:0.821" fill="#010101" d="M 166.5,92.5 C 169.272,92.22 171.772,92.8866 174,94.5C 175.082,100.421 175.915,106.421 176.5,112.5C 187.631,107.818 195.131,111.151 199,122.5C 201.113,138.057 194.28,145.89 178.5,146C 165.366,152.735 159.699,148.569 161.5,133.5C 160.5,133.5 159.5,133.5 158.5,133.5C 158.352,149.499 150.685,155.333 135.5,151C 127.425,146.856 123.758,140.189 124.5,131C 122.827,113.345 130.827,106.011 148.5,109C 155.288,113.126 158.622,119.293 158.5,127.5C 159.5,127.5 160.5,127.5 161.5,127.5C 161.333,116.828 161.5,106.161 162,95.5C 163.31,94.1031 164.81,93.1031 166.5,92.5 Z M 141.5,115.5 C 138.51,118.126 138.01,121.126 140,124.5C 141.323,127.059 143.157,127.725 145.5,126.5C 144.907,122.463 143.574,118.796 141.5,115.5 Z M 183.5,120.5 C 181.346,125.129 179.679,129.962 178.5,135C 179.169,136.847 180.503,138.014 182.5,138.5C 187.411,132.557 187.744,126.557 183.5,120.5 Z M 137.5,132.5 C 137.523,135.457 138.523,137.957 140.5,140C 139.664,141.243 139.997,142.41 141.5,143.5C 146.673,137.133 145.339,133.466 137.5,132.5 Z"/></g>
<g><path style="opacity:0.822" fill="#010101" d="M 206.5,92.5 C 209.272,92.22 211.772,92.8866 214,94.5C 214.333,100.833 214.667,107.167 215,113.5C 224.668,107.963 232.335,109.963 238,119.5C 242.271,131.381 238.771,139.881 227.5,145C 221.233,145.331 215.233,146.497 209.5,148.5C 207.036,148.41 204.87,147.743 203,146.5C 201.898,142.584 201.231,138.584 201,134.5C 200.963,125.466 200.796,116.466 200.5,107.5C 200.766,103.14 201.266,98.8066 202,94.5C 203.622,93.9011 205.122,93.2344 206.5,92.5 Z M 223.5,120.5 C 221.283,124.941 219.616,129.608 218.5,134.5C 218.785,136.569 219.952,137.902 222,138.5C 226.087,133.396 227.087,127.729 225,121.5C 224.617,120.944 224.117,120.611 223.5,120.5 Z"/></g>
<g><path style="opacity:0.802" fill="#010101" d="M 267.5,109.5 C 269.352,110.089 271.185,110.756 273,111.5C 274.535,116.369 275.535,121.369 276,126.5C 276.667,136.167 276.667,145.833 276,155.5C 273.96,167.945 266.793,172.445 254.5,169C 251.768,168.587 249.101,167.92 246.5,167C 245.167,165.667 245.167,164.333 246.5,163C 251.672,162.635 256.672,162.469 261.5,162.5C 264.852,155.779 265.352,148.779 263,141.5C 247.903,145.096 240.403,138.929 240.5,123C 240.406,113.198 245.072,110.031 254.5,113.5C 254.061,119.802 254.561,126.135 256,132.5C 257.67,125.481 259.336,118.481 261,111.5C 263.277,110.883 265.444,110.216 267.5,109.5 Z"/></g>
<g><path style="opacity:0.694" fill="#cd1d1b" d="M 336.5,21.5 C 337.268,22.2625 337.768,23.2625 338,24.5C 338.667,82.1667 338.667,139.833 338,197.5C 336.45,202.21 333.617,205.876 329.5,208.5C 329.5,207.167 329.5,205.833 329.5,204.5C 330.5,204.5 331.5,204.5 332.5,204.5C 332.561,202.408 333.561,200.908 335.5,200C 335.043,199.586 334.709,199.086 334.5,198.5C 336.491,139.647 337.157,80.6474 336.5,21.5 Z"/></g>
<g><path style="opacity:0.004" fill="#fefffe" d="M 352.5,148.5 C 353.833,149.167 353.833,149.167 352.5,148.5 Z"/></g>
<g><path style="opacity:0.004" fill="#fefffe" d="M 13.5,154.5 C 14.8333,155.167 14.8333,155.167 13.5,154.5 Z"/></g>
<g><path style="opacity:0.004" fill="#fefffe" d="M 30.5,171.5 C 31.8333,172.167 31.8333,172.167 30.5,171.5 Z"/></g>
<g><path style="opacity:0.099" fill="#b51010" d="M 44.5,66.5 C 44.5,105.5 44.5,144.5 44.5,183.5C 140.833,183.5 237.167,183.5 333.5,183.5C 236.833,184.833 140.167,184.833 43.5,183.5C 43.1681,144.33 43.5015,105.33 44.5,66.5 Z"/></g>
<g><path style="opacity:0.627" fill="#bf1314" d="M 328.5,208.5 C 327.4,209.558 326.066,210.392 324.5,211C 264.93,211.169 205.43,211.669 146,212.5C 115.736,211.837 85.569,211.17 55.5,210.5C 146.57,211.141 237.57,210.475 328.5,208.5 Z"/></g>
<g><path style="opacity:0.004" fill="#fefffe" d="M 222.5,213.5 C 223.833,214.167 223.833,214.167 222.5,213.5 Z"/></g>
<g><path style="opacity:0.004" fill="#fefffe" d="M 205.5,214.5 C 206.833,215.167 206.833,215.167 205.5,214.5 Z"/></g>
<g><path style="opacity:0.004" fill="#fefffe" d="M 38.5,218.5 C 39.8333,219.167 39.8333,219.167 38.5,218.5 Z"/></g>
</svg>
