<!DOCTYPE svg PUBLIC "-//W3C//DTD SVG 1.1//EN" "http://www.w3.org/Graphics/SVG/1.1/DTD/svg11.dtd">

<svg xmlns="http://www.w3.org/2000/svg" viewBox="0 0 384 384">

<path fill="#8CFF00" d="M183.431 87.818c-25.605 8.852-23.084 46.156 3.445 50.978 26.502 4.817 42.666-27.322 22.874-45.479-7.463-6.846-16.787-8.795-26.319-5.499m-63.087 29.263c-21.577 4.064-29.412 30.293-13.496 45.18 21.268 19.894 53.833-3.261 42.194-30.003-4.735-10.879-17.021-17.376-28.698-15.177m134-.028c-26.361 5.144-29.573 41.546-4.501 51.008 12.924 4.877 27.819-1.369 33.503-14.05 6.642-14.819-2.77-33.955-17.966-36.529a316.132 316.132 0 0 1-5.38-.949c-.825-.16-3.37.073-5.656.52M163.5 148.492c-5.655 1.985-14.231 11.422-18.821 20.711l-3.768 7.626-21.205.347c-19.548.319-21.529.518-25.334 2.543-11.509 6.125-20.497 22.71-25.383 46.838C67.345 234.672 66 241.43 66 241.574c0 .145 3.037 1.265 6.75 2.491 3.712 1.225 7.313 2.435 8 2.688.842.311 1.254-.635 1.263-2.896.046-11.792 6.484-29.269 13.963-37.905l2.123-2.452-.567 16c-.312 8.8-.825 19.417-1.14 23.594l-.573 7.595 5.841 2.115c10.162 3.68 14.565 4.471 25.34 4.556 9.906.077 25.061-2.483 24.964-4.218-.019-.353-.687-3.342-1.484-6.642-.797-3.3-1.449-8.475-1.449-11.5 0-3.025.652-8.2 1.449-11.5.797-3.3 1.48-9.15 1.518-13l.069-7 1.934 2.321 1.935 2.321 6.075-6.494c28.924-30.921 77.239-18.347 87.101 22.667 1.452 6.037.653 20.646-1.458 26.652-1.917 5.455-1.739 5.595 8.213 6.453 8.241.711 18.451-.409 26.996-2.962l5.364-1.603-.597-9.177c-.328-5.048-.852-16.153-1.164-24.678l-.568-15.5 2.575 3c7.212 8.402 13.466 25.61 13.514 37.181l.013 3.182 7.75-2.574c4.262-1.415 7.863-2.66 8.002-2.766.873-.671-6.219-30.835-8.434-35.872-5.716-12.996-12.682-22.131-19.818-25.989-3.675-1.986-5.715-2.188-25.116-2.482l-21.115-.319-3.871-7.681c-4.897-9.715-14.155-19.524-19.898-21.083-6.194-1.681-50.985-1.365-56 .395m-2.116 29.072-2.718 3.563 3.167 3.167 3.167 3.168v-6.731c0-7.822-.04-7.857-3.616-3.167m57.657 2.873-.041 6.937 3-2.874c3.667-3.513 3.665-3.297.041-7.538l-2.96-3.462-.04 6.937M192 193.126c-25.412 4.121-42.364 34.178-32.215 57.121l1.992 4.503-13.457 13.375c-7.402 7.356-14.102 14.59-14.889 16.075-3.284 6.197-.934 14.384 4.926 17.165 7.691 3.65 10.519 2.149 27.151-14.41l14.009-13.947 5.491 2.125c14.519 5.618 34.239.87 45.428-10.937 23.332-24.622 9.45-65.734-24.049-71.22-6.62-1.084-6.787-1.083-14.387.15m.46 19.938c-14.875 4.326-20.462 25.893-9.657 37.278 14.289 15.055 39.153 5.312 39.153-15.342 0-15.45-14.561-26.279-29.496-21.936" fill-rule="evenodd"/>

</svg>